<svg width="390" height="140" viewBox="0 0 390 140" fill="none" xmlns="http://www.w3.org/2000/svg">
<path d="M0 86.4394C153.752 -151.923 156.277 258.854 390 86.4394" stroke="white" stroke-opacity="0.1"/>
<path d="M0 86.4394C153.752 -151.923 156.277 258.854 390 86.4394" stroke="url(#paint0_radial_614_29051)"/>
<path d="M0 77.4961C153.752 -160.867 156.277 249.911 390 77.4961" stroke="white" stroke-opacity="0.1"/>
<path d="M0 77.4961C153.752 -160.867 156.277 249.911 390 77.4961" stroke="url(#paint1_radial_614_29051)"/>
<path d="M0 95.3838C153.752 -142.979 156.277 267.799 390 95.3838" stroke="white" stroke-opacity="0.1"/>
<path d="M0 95.3838C153.752 -142.979 156.277 267.799 390 95.3838" stroke="url(#paint2_radial_614_29051)"/>
<g filter="url(#filter0_di_614_29051)">
<rect x="163.25" y="57" width="64" height="64" rx="8" fill="#08090D" shape-rendering="crispEdges"/>
<rect x="163.25" y="57" width="64" height="64" rx="8" fill="url(#paint3_radial_614_29051)" fill-opacity="0.06" shape-rendering="crispEdges"/>
<rect x="163.25" y="57" width="64" height="64" rx="8" fill="url(#paint4_radial_614_29051)" fill-opacity="0.2" shape-rendering="crispEdges"/>
<rect x="162.75" y="56.5" width="65" height="65" rx="8.5" stroke="white" stroke-opacity="0.1" shape-rendering="crispEdges"/>
<g filter="url(#filter1_d_614_29051)">
<path d="M209.491 84.5803C208.114 82.7069 208.994 83.0637 208.195 81.1949C206.361 76.9017 202.135 77.3251 198.337 77.1556C198.369 78.5522 198.798 79.5428 199.676 80.3587C196.562 80.3121 193.449 83.8748 195.877 88.3641C196.061 88.7331 196.252 89.0509 196.456 89.3407C197.431 90.728 198.197 91.9566 199.015 93.4423C199.239 93.8504 199.477 94.2801 199.731 94.7318C200.301 95.7454 200.294 96.454 200.003 96.8541C199.894 97.0021 199.731 97.1297 199.533 97.231C199.316 97.3414 199.088 97.4038 198.871 97.4131C198.44 97.4317 198.008 97.2371 197.797 96.7761L195.648 92.0751C195.383 91.499 194.964 91.0565 194.466 90.7687C194.008 90.5025 193.485 90.3701 192.954 90.3812C192.423 90.3701 191.9 90.5025 191.442 90.7687C190.942 91.0568 190.523 91.499 190.26 92.0751L188.11 96.7761C187.899 97.2386 187.466 97.4317 187.035 97.4131C186.819 97.4038 186.591 97.3414 186.375 97.231C186.177 97.1297 186.012 97.0021 185.905 96.8541C185.612 96.454 185.605 95.7454 186.175 94.7318C187.661 92.0909 188.964 89.3675 189.963 87.1312C190.568 85.7779 190.6 84.3949 190.059 83.0138C189.519 81.634 188.557 80.6409 187.194 80.0569L180.05 77C180.05 77 180.297 80.3386 182.524 82.0701C183.736 83.0138 184.508 83.59 184.96 83.9186C185.31 84.1737 185.603 84.5383 185.534 84.9664L185.475 85.3369L182.091 83.2769C182.091 83.2769 181.942 85.6734 182.709 86.7554C183.477 87.8375 183.823 87.9714 184.323 88.3235C183.638 89.7405 182.985 90.9989 182.154 92.4765C180.545 95.3356 180.914 97.813 182.189 99.56C182.752 100.331 183.479 100.934 184.283 101.343C185.067 101.743 185.953 101.974 186.855 102.013C189.013 102.104 191.196 101.092 192.296 98.6884L192.954 97.248L193.613 98.6884C194.711 101.092 196.894 102.104 199.052 102.013C199.954 101.974 200.84 101.743 201.625 101.343C202.43 100.934 203.155 100.331 203.719 99.56C204.993 97.813 205.362 95.3356 203.755 92.4765C203.028 91.1838 202.441 90.105 201.969 89.2064C202.864 89.5163 203.828 89.6891 204.789 89.6658C205.947 89.6361 207.104 89.32 208.142 88.6131C209.06 87.9857 209.886 86.9922 210.463 85.5362C210.05 85.2298 209.734 84.9089 209.491 84.5803ZM206.185 83.8017C205.285 83.7285 204.419 83.3921 203.846 83.0805C203.401 82.839 203.113 82.4047 203.219 81.9093C203.586 80.1812 206.965 80.6452 206.185 83.8017ZM208.686 85.228C208.56 85.4024 208.261 85.404 208.018 85.2295C207.775 85.0551 207.68 84.7716 207.806 84.5974C207.932 84.4215 208.231 84.4215 208.474 84.596C208.715 84.7704 208.81 85.0521 208.686 85.228Z" fill="url(#paint5_linear_614_29051)"/>
</g>
</g>
<defs>
<filter id="filter0_di_614_29051" x="152.25" y="48" width="86" height="86" filterUnits="userSpaceOnUse" color-interpolation-filters="sRGB">
<feFlood flood-opacity="0" result="BackgroundImageFix"/>
<feColorMatrix in="SourceAlpha" type="matrix" values="0 0 0 0 0 0 0 0 0 0 0 0 0 0 0 0 0 0 127 0" result="hardAlpha"/>
<feOffset dy="2"/>
<feGaussianBlur stdDeviation="5"/>
<feComposite in2="hardAlpha" operator="out"/>
<feColorMatrix type="matrix" values="0 0 0 0 0.0392157 0 0 0 0 0.0470588 0 0 0 0 0.0588235 0 0 0 0.2 0"/>
<feBlend mode="normal" in2="BackgroundImageFix" result="effect1_dropShadow_614_29051"/>
<feBlend mode="normal" in="SourceGraphic" in2="effect1_dropShadow_614_29051" result="shape"/>
<feColorMatrix in="SourceAlpha" type="matrix" values="0 0 0 0 0 0 0 0 0 0 0 0 0 0 0 0 0 0 127 0" result="hardAlpha"/>
<feOffset dy="-1"/>
<feGaussianBlur stdDeviation="1"/>
<feComposite in2="hardAlpha" operator="arithmetic" k2="-1" k3="1"/>
<feColorMatrix type="matrix" values="0 0 0 0 0.0986 0 0 0 0 0.4814 0 0 0 0 0.27695 0 0 0 1 0"/>
<feBlend mode="normal" in2="shape" result="effect2_innerShadow_614_29051"/>
</filter>
<filter id="filter1_d_614_29051" x="171.25" y="67" width="48" height="48" filterUnits="userSpaceOnUse" color-interpolation-filters="sRGB">
<feFlood flood-opacity="0" result="BackgroundImageFix"/>
<feColorMatrix in="SourceAlpha" type="matrix" values="0 0 0 0 0 0 0 0 0 0 0 0 0 0 0 0 0 0 127 0" result="hardAlpha"/>
<feOffset dy="2"/>
<feGaussianBlur stdDeviation="4"/>
<feComposite in2="hardAlpha" operator="out"/>
<feColorMatrix type="matrix" values="0 0 0 0 0.0392157 0 0 0 0 0.0470588 0 0 0 0 0.0588235 0 0 0 0.4 0"/>
<feBlend mode="normal" in2="BackgroundImageFix" result="effect1_dropShadow_614_29051"/>
<feBlend mode="normal" in="SourceGraphic" in2="effect1_dropShadow_614_29051" result="shape"/>
</filter>
<radialGradient id="paint0_radial_614_29051" cx="0" cy="0" r="1" gradientUnits="userSpaceOnUse" gradientTransform="translate(195 9.94336) rotate(90) scale(120.113 390)">
<stop stop-color="#56CF8F"/>
<stop offset="1" stop-color="#0A0B0F" stop-opacity="0"/>
</radialGradient>
<radialGradient id="paint1_radial_614_29051" cx="0" cy="0" r="1" gradientUnits="userSpaceOnUse" gradientTransform="translate(195 1) rotate(90) scale(120.113 390)">
<stop stop-color="#56CF8F"/>
<stop offset="1" stop-color="#0A0B0F" stop-opacity="0"/>
</radialGradient>
<radialGradient id="paint2_radial_614_29051" cx="0" cy="0" r="1" gradientUnits="userSpaceOnUse" gradientTransform="translate(195 18.8877) rotate(90) scale(120.113 390)">
<stop stop-color="#56CF8F"/>
<stop offset="1" stop-color="#0A0B0F" stop-opacity="0"/>
</radialGradient>
<radialGradient id="paint3_radial_614_29051" cx="0" cy="0" r="1" gradientUnits="userSpaceOnUse" gradientTransform="translate(192.339 65.375) rotate(111.764) scale(53.9387 61.188)">
<stop stop-color="#45CA83"/>
<stop offset="1" stop-color="#07090C" stop-opacity="0"/>
</radialGradient>
<radialGradient id="paint4_radial_614_29051" cx="0" cy="0" r="1" gradientUnits="userSpaceOnUse" gradientTransform="translate(197.161 89) rotate(90.1194) scale(32.0001 33.9113)">
<stop stop-color="#43C781"/>
<stop offset="1" stop-color="#0A0B0F" stop-opacity="0"/>
</radialGradient>
<linearGradient id="paint5_linear_614_29051" x1="195.256" y1="77.6664" x2="195.256" y2="102.018" gradientUnits="userSpaceOnUse">
<stop stop-color="#96FFBB"/>
<stop offset="0.4784" stop-color="#03D7A9"/>
<stop offset="1" stop-color="#006861"/>
</linearGradient>
</defs>
</svg>
