<svg width="1130" height="140" viewBox="0 0 1130 140" fill="none" xmlns="http://www.w3.org/2000/svg">
<path d="M1 86.4399C445.698 -151.923 453 258.855 1129 86.4399" stroke="white" stroke-opacity="0.1"/>
<path d="M1 86.4399C445.698 -151.923 453 258.855 1129 86.4399" stroke="url(#paint0_radial_614_25868)"/>
<path d="M1 77.4961C445.698 -160.867 453 249.911 1129 77.4961" stroke="white" stroke-opacity="0.1"/>
<path d="M1 77.4961C445.698 -160.867 453 249.911 1129 77.4961" stroke="url(#paint1_radial_614_25868)"/>
<path d="M1 95.3833C445.698 -142.979 453 267.798 1129 95.3833" stroke="white" stroke-opacity="0.1"/>
<path d="M1 95.3833C445.698 -142.979 453 267.798 1129 95.3833" stroke="url(#paint2_radial_614_25868)"/>
<g filter="url(#filter0_di_614_25868)">
<rect x="533" y="56.6284" width="64" height="63.5995" rx="8" fill="#08090D" shape-rendering="crispEdges"/>
<rect x="533" y="56.6284" width="64" height="63.5995" rx="8" fill="url(#paint3_radial_614_25868)" fill-opacity="0.06" shape-rendering="crispEdges"/>
<rect x="533" y="56.6284" width="64" height="63.5995" rx="8" fill="url(#paint4_radial_614_25868)" fill-opacity="0.2" shape-rendering="crispEdges"/>
<rect x="532.5" y="56.1284" width="65" height="64.5995" rx="8.5" stroke="white" stroke-opacity="0.1" shape-rendering="crispEdges"/>
<g filter="url(#filter1_d_614_25868)">
<path d="M579.241 84.2087C577.864 82.3353 578.744 82.6921 577.945 80.8233C576.111 76.5301 571.885 76.9535 568.087 76.784C568.119 78.1806 568.548 79.1712 569.426 79.9871C566.312 79.9405 563.199 83.5032 565.627 87.9925C565.811 88.3615 566.002 88.6793 566.206 88.9691C567.181 90.3564 567.947 91.585 568.765 93.0707C568.989 93.4788 569.227 93.9085 569.481 94.3602C570.051 95.3738 570.044 96.0824 569.753 96.4826C569.644 96.6305 569.481 96.7581 569.283 96.8594C569.066 96.9698 568.838 97.0322 568.621 97.0415C568.19 97.0601 567.758 96.8656 567.547 96.4045L565.398 91.7036C565.133 91.1274 564.714 90.6849 564.216 90.3971C563.758 90.1309 563.235 89.9985 562.704 90.0096C562.173 89.9985 561.65 90.1309 561.192 90.3971C560.692 90.6852 560.273 91.1274 560.01 91.7036L557.86 96.4045C557.649 96.867 557.216 97.0601 556.785 97.0415C556.569 97.0322 556.341 96.9698 556.125 96.8594C555.927 96.7581 555.762 96.6305 555.655 96.4826C555.362 96.0824 555.355 95.3738 555.925 94.3602C557.411 91.7193 558.714 88.9959 559.713 86.7596C560.318 85.4064 560.35 84.0234 559.809 82.6422C559.269 81.2625 558.307 80.2693 556.944 79.6853L549.8 76.6284C549.8 76.6284 550.047 79.967 552.274 81.6985C553.486 82.6423 554.258 83.2184 554.71 83.547C555.06 83.8021 555.353 84.1667 555.284 84.5949L555.225 84.9653L551.841 82.9053C551.841 82.9053 551.692 85.3018 552.459 86.3838C553.227 87.4659 553.573 87.5998 554.073 87.9519C553.388 89.369 552.735 90.6273 551.904 92.1049C550.295 94.964 550.664 97.4414 551.939 99.1884C552.502 99.9591 553.229 100.562 554.033 100.972C554.817 101.372 555.703 101.602 556.605 101.641C558.763 101.733 560.946 100.721 562.046 98.3168L562.704 96.8764L563.363 98.3168C564.461 100.721 566.644 101.733 568.802 101.641C569.704 101.602 570.59 101.372 571.375 100.972C572.18 100.562 572.905 99.9594 573.469 99.1884C574.743 97.4414 575.112 94.964 573.505 92.1049C572.778 90.8123 572.191 89.7334 571.719 88.8348C572.614 89.1448 573.578 89.3175 574.539 89.2942C575.697 89.2645 576.854 88.9484 577.892 88.2415C578.81 87.6141 579.636 86.6206 580.213 85.1646C579.8 84.8582 579.484 84.5373 579.241 84.2087ZM575.935 83.4301C575.035 83.357 574.169 83.0205 573.596 82.7089C573.151 82.4674 572.863 82.0331 572.969 81.5377C573.336 79.8096 576.715 80.2736 575.935 83.4301ZM578.436 84.8564C578.31 85.0309 578.011 85.0324 577.768 84.858C577.525 84.6835 577.43 84.4 577.556 84.2258C577.682 84.0499 577.981 84.0499 578.224 84.2244C578.465 84.3988 578.56 84.6805 578.436 84.8564Z" fill="url(#paint5_linear_614_25868)"/>
</g>
</g>
<defs>
<filter id="filter0_di_614_25868" x="522" y="47.6284" width="86" height="85.5996" filterUnits="userSpaceOnUse" color-interpolation-filters="sRGB">
<feFlood flood-opacity="0" result="BackgroundImageFix"/>
<feColorMatrix in="SourceAlpha" type="matrix" values="0 0 0 0 0 0 0 0 0 0 0 0 0 0 0 0 0 0 127 0" result="hardAlpha"/>
<feOffset dy="2"/>
<feGaussianBlur stdDeviation="5"/>
<feComposite in2="hardAlpha" operator="out"/>
<feColorMatrix type="matrix" values="0 0 0 0 0.0392157 0 0 0 0 0.0470588 0 0 0 0 0.0588235 0 0 0 0.2 0"/>
<feBlend mode="normal" in2="BackgroundImageFix" result="effect1_dropShadow_614_25868"/>
<feBlend mode="normal" in="SourceGraphic" in2="effect1_dropShadow_614_25868" result="shape"/>
<feColorMatrix in="SourceAlpha" type="matrix" values="0 0 0 0 0 0 0 0 0 0 0 0 0 0 0 0 0 0 127 0" result="hardAlpha"/>
<feOffset dy="-1"/>
<feGaussianBlur stdDeviation="1"/>
<feComposite in2="hardAlpha" operator="arithmetic" k2="-1" k3="1"/>
<feColorMatrix type="matrix" values="0 0 0 0 0.0986 0 0 0 0 0.4814 0 0 0 0 0.27695 0 0 0 1 0"/>
<feBlend mode="normal" in2="shape" result="effect2_innerShadow_614_25868"/>
</filter>
<filter id="filter1_d_614_25868" x="541" y="66.6284" width="48" height="48" filterUnits="userSpaceOnUse" color-interpolation-filters="sRGB">
<feFlood flood-opacity="0" result="BackgroundImageFix"/>
<feColorMatrix in="SourceAlpha" type="matrix" values="0 0 0 0 0 0 0 0 0 0 0 0 0 0 0 0 0 0 127 0" result="hardAlpha"/>
<feOffset dy="2"/>
<feGaussianBlur stdDeviation="4"/>
<feComposite in2="hardAlpha" operator="out"/>
<feColorMatrix type="matrix" values="0 0 0 0 0.0392157 0 0 0 0 0.0470588 0 0 0 0 0.0588235 0 0 0 0.4 0"/>
<feBlend mode="normal" in2="BackgroundImageFix" result="effect1_dropShadow_614_25868"/>
<feBlend mode="normal" in="SourceGraphic" in2="effect1_dropShadow_614_25868" result="shape"/>
</filter>
<radialGradient id="paint0_radial_614_25868" cx="0" cy="0" r="1" gradientUnits="userSpaceOnUse" gradientTransform="translate(565 9.94385) rotate(90) scale(120.113 1128)">
<stop stop-color="#56CF8F"/>
<stop offset="1" stop-color="#0A0B0F" stop-opacity="0"/>
</radialGradient>
<radialGradient id="paint1_radial_614_25868" cx="0" cy="0" r="1" gradientUnits="userSpaceOnUse" gradientTransform="translate(565 1) rotate(90) scale(120.113 1128)">
<stop stop-color="#56CF8F"/>
<stop offset="1" stop-color="#0A0B0F" stop-opacity="0"/>
</radialGradient>
<radialGradient id="paint2_radial_614_25868" cx="0" cy="0" r="1" gradientUnits="userSpaceOnUse" gradientTransform="translate(565 18.8872) rotate(90) scale(120.113 1128)">
<stop stop-color="#56CF8F"/>
<stop offset="1" stop-color="#0A0B0F" stop-opacity="0"/>
</radialGradient>
<radialGradient id="paint3_radial_614_25868" cx="0" cy="0" r="1" gradientUnits="userSpaceOnUse" gradientTransform="translate(562.089 64.951) rotate(111.889) scale(53.6477 61.1349)">
<stop stop-color="#45CA83"/>
<stop offset="1" stop-color="#07090C" stop-opacity="0"/>
</radialGradient>
<radialGradient id="paint4_radial_614_25868" cx="0" cy="0" r="1" gradientUnits="userSpaceOnUse" gradientTransform="translate(566.911 88.4282) rotate(90.1201) scale(31.7998 33.9113)">
<stop stop-color="#43C781"/>
<stop offset="1" stop-color="#0A0B0F" stop-opacity="0"/>
</radialGradient>
<linearGradient id="paint5_linear_614_25868" x1="565.006" y1="77.2948" x2="565.006" y2="101.646" gradientUnits="userSpaceOnUse">
<stop stop-color="#96FFBB"/>
<stop offset="0.4784" stop-color="#03D7A9"/>
<stop offset="1" stop-color="#006861"/>
</linearGradient>
</defs>
</svg>
