<svg width="1344" height="560" viewBox="0 0 1344 560" fill="none" xmlns="http://www.w3.org/2000/svg">
<mask id="path-1-inside-1_614_25764" fill="white">
<path fill-rule="evenodd" clip-rule="evenodd" d="M552.524 40L504.893 12.5C493.892 6.14873 476.056 6.14873 465.056 12.5L417.424 40L484.974 79L552.524 40ZM505.759 12C494.28 5.37258 475.669 5.37258 464.19 12L416.558 39.5L415.692 40L414.826 40.5L347.276 79.5L346.41 80L345.544 80.5L277.994 119.5L277.128 120L276.262 120.5L208.712 159.5L207.846 160L206.98 160.5L139.43 199.5L138.564 200L137.698 200.5L70.1479 239.5L69.2819 240L68.4159 240.5L20.7845 268C9.30547 274.627 9.30546 285.373 20.7845 292L68.4159 319.5L69.2819 320L70.1479 320.5L137.698 359.5L138.564 360L139.43 360.5L206.98 399.5L207.846 400L208.712 400.5L276.262 439.5L277.128 440L277.994 440.5L345.544 479.5L346.41 480L347.276 480.5L414.826 519.5L415.692 520L464.189 548C475.668 554.627 494.28 554.627 505.759 548L554.256 520L555.122 519.5L622.672 480.5L623.538 480L624.404 479.5L691.954 440.5L692.82 440L693.686 439.5L761.236 400.5L762.102 400L762.968 399.5L830.518 360.5L831.384 360L832.25 359.5L899.8 320.5L900.666 320L901.532 319.5L949.164 292C960.643 285.373 960.643 274.627 949.164 268L901.532 240.5L900.666 240L899.8 239.5L832.25 200.5L831.384 200L830.518 199.5L762.968 160.5L762.102 160L761.236 159.5L713.605 132C702.126 125.373 683.515 125.373 672.036 132C683.515 125.373 683.515 114.627 672.036 108L624.404 80.5L623.538 80L622.672 79.5L555.122 40.5L554.256 40L553.39 39.5L505.759 12ZM483.242 80L415.692 41L348.142 80L415.692 119L483.242 80ZM346.41 81L413.96 120L346.41 159L278.86 120L346.41 81ZM344.678 160L277.128 121L209.578 160L277.128 199L344.678 160ZM207.846 161L275.396 200L207.846 239L140.296 200L207.846 161ZM206.114 240L138.564 201L71.014 240L138.564 279L206.114 240ZM69.2819 241L136.832 280L69.2819 319L21.6505 291.5C10.6498 285.149 10.6498 274.851 21.6505 268.5L69.2819 241ZM621.806 80L554.256 41L486.706 80L554.256 119L621.806 80ZM484.974 81L552.524 120L484.974 159L417.424 120L484.974 81ZM483.242 160L415.692 121L348.142 160L415.692 199L483.242 160ZM346.41 161L413.96 200L346.41 239L278.86 200L346.41 161ZM344.678 240L277.128 201L209.578 240L277.128 279L344.678 240ZM207.846 241L275.396 280L207.846 319L140.296 280L207.846 241ZM206.114 320L138.564 281L71.014 320L138.564 359L206.114 320ZM623.538 81L671.17 108.5C682.17 114.851 682.17 125.149 671.17 131.5L623.538 159L555.988 120L623.538 81ZM621.806 160L554.256 121L486.706 160L554.256 199L621.806 160ZM484.974 161L552.524 200L484.974 239L417.424 200L484.974 161ZM483.242 240L415.692 201L348.142 240L415.692 279L483.242 240ZM346.41 241L413.96 280L346.41 319L278.86 280L346.41 241ZM344.678 320L277.128 281L209.578 320L277.128 359L344.678 320ZM207.846 321L275.396 360L207.846 399L140.296 360L207.846 321ZM760.37 160L712.739 132.5C701.738 126.149 683.902 126.149 672.902 132.5L625.27 160L692.82 199L760.37 160ZM623.538 161L691.088 200L623.538 239L555.988 200L623.538 161ZM621.806 240L554.256 201L486.706 240L554.256 279L621.806 240ZM484.974 241L552.524 280L484.974 319L417.424 280L484.974 241ZM483.242 320L415.692 281L348.142 320L415.692 359L483.242 320ZM346.41 321L413.96 360L346.41 399L278.86 360L346.41 321ZM344.678 400L277.128 361L209.578 400L277.128 439L344.678 400ZM762.102 161L829.652 200L762.102 239L694.552 200L762.102 161ZM760.37 240L692.82 201L625.27 240L692.82 279L760.37 240ZM623.538 241L691.088 280L623.538 319L555.988 280L623.538 241ZM621.806 320L554.256 281L486.706 320L554.256 359L621.806 320ZM484.974 321L552.524 360L484.974 399L417.424 360L484.974 321ZM483.242 400L415.692 361L348.142 400L415.692 439L483.242 400ZM346.41 401L413.96 440L346.41 479L278.86 440L346.41 401ZM898.934 240L831.384 201L763.834 240L831.384 279L898.934 240ZM762.102 241L829.652 280L762.102 319L694.552 280L762.102 241ZM760.37 320L692.82 281L625.27 320L692.82 359L760.37 320ZM623.538 321L691.088 360L623.538 399L555.988 360L623.538 321ZM621.806 400L554.256 361L486.706 400L554.256 439L621.806 400ZM483.242 480L415.692 441L348.142 480L415.692 519L483.242 480ZM900.666 241L948.298 268.5C959.298 274.851 959.298 285.149 948.298 291.5L900.666 319L833.116 280L900.666 241ZM898.934 320L831.384 281L763.834 320L831.384 359L898.934 320ZM762.102 321L829.652 360L762.102 399L694.552 360L762.102 321ZM760.37 400L692.82 361L625.27 400L692.82 439L760.37 400ZM623.538 401L691.088 440L623.538 479L555.988 440L623.538 401ZM621.806 480L554.256 441L486.706 480L554.256 519L621.806 480Z"/>
</mask>
<path fill-rule="evenodd" clip-rule="evenodd" d="M552.524 40L504.893 12.5C493.892 6.14873 476.056 6.14873 465.056 12.5L417.424 40L484.974 79L552.524 40ZM505.759 12C494.28 5.37258 475.669 5.37258 464.19 12L416.558 39.5L415.692 40L414.826 40.5L347.276 79.5L346.41 80L345.544 80.5L277.994 119.5L277.128 120L276.262 120.5L208.712 159.5L207.846 160L206.98 160.5L139.43 199.5L138.564 200L137.698 200.5L70.1479 239.5L69.2819 240L68.4159 240.5L20.7845 268C9.30547 274.627 9.30546 285.373 20.7845 292L68.4159 319.5L69.2819 320L70.1479 320.5L137.698 359.5L138.564 360L139.43 360.5L206.98 399.5L207.846 400L208.712 400.5L276.262 439.5L277.128 440L277.994 440.5L345.544 479.5L346.41 480L347.276 480.5L414.826 519.5L415.692 520L464.189 548C475.668 554.627 494.28 554.627 505.759 548L554.256 520L555.122 519.5L622.672 480.5L623.538 480L624.404 479.5L691.954 440.5L692.82 440L693.686 439.5L761.236 400.5L762.102 400L762.968 399.5L830.518 360.5L831.384 360L832.25 359.5L899.8 320.5L900.666 320L901.532 319.5L949.164 292C960.643 285.373 960.643 274.627 949.164 268L901.532 240.5L900.666 240L899.8 239.5L832.25 200.5L831.384 200L830.518 199.5L762.968 160.5L762.102 160L761.236 159.5L713.605 132C702.126 125.373 683.515 125.373 672.036 132C683.515 125.373 683.515 114.627 672.036 108L624.404 80.5L623.538 80L622.672 79.5L555.122 40.5L554.256 40L553.39 39.5L505.759 12ZM483.242 80L415.692 41L348.142 80L415.692 119L483.242 80ZM346.41 81L413.96 120L346.41 159L278.86 120L346.41 81ZM344.678 160L277.128 121L209.578 160L277.128 199L344.678 160ZM207.846 161L275.396 200L207.846 239L140.296 200L207.846 161ZM206.114 240L138.564 201L71.014 240L138.564 279L206.114 240ZM69.2819 241L136.832 280L69.2819 319L21.6505 291.5C10.6498 285.149 10.6498 274.851 21.6505 268.5L69.2819 241ZM621.806 80L554.256 41L486.706 80L554.256 119L621.806 80ZM484.974 81L552.524 120L484.974 159L417.424 120L484.974 81ZM483.242 160L415.692 121L348.142 160L415.692 199L483.242 160ZM346.41 161L413.96 200L346.41 239L278.86 200L346.41 161ZM344.678 240L277.128 201L209.578 240L277.128 279L344.678 240ZM207.846 241L275.396 280L207.846 319L140.296 280L207.846 241ZM206.114 320L138.564 281L71.014 320L138.564 359L206.114 320ZM623.538 81L671.17 108.5C682.17 114.851 682.17 125.149 671.17 131.5L623.538 159L555.988 120L623.538 81ZM621.806 160L554.256 121L486.706 160L554.256 199L621.806 160ZM484.974 161L552.524 200L484.974 239L417.424 200L484.974 161ZM483.242 240L415.692 201L348.142 240L415.692 279L483.242 240ZM346.41 241L413.96 280L346.41 319L278.86 280L346.41 241ZM344.678 320L277.128 281L209.578 320L277.128 359L344.678 320ZM207.846 321L275.396 360L207.846 399L140.296 360L207.846 321ZM760.37 160L712.739 132.5C701.738 126.149 683.902 126.149 672.902 132.5L625.27 160L692.82 199L760.37 160ZM623.538 161L691.088 200L623.538 239L555.988 200L623.538 161ZM621.806 240L554.256 201L486.706 240L554.256 279L621.806 240ZM484.974 241L552.524 280L484.974 319L417.424 280L484.974 241ZM483.242 320L415.692 281L348.142 320L415.692 359L483.242 320ZM346.41 321L413.96 360L346.41 399L278.86 360L346.41 321ZM344.678 400L277.128 361L209.578 400L277.128 439L344.678 400ZM762.102 161L829.652 200L762.102 239L694.552 200L762.102 161ZM760.37 240L692.82 201L625.27 240L692.82 279L760.37 240ZM623.538 241L691.088 280L623.538 319L555.988 280L623.538 241ZM621.806 320L554.256 281L486.706 320L554.256 359L621.806 320ZM484.974 321L552.524 360L484.974 399L417.424 360L484.974 321ZM483.242 400L415.692 361L348.142 400L415.692 439L483.242 400ZM346.41 401L413.96 440L346.41 479L278.86 440L346.41 401ZM898.934 240L831.384 201L763.834 240L831.384 279L898.934 240ZM762.102 241L829.652 280L762.102 319L694.552 280L762.102 241ZM760.37 320L692.82 281L625.27 320L692.82 359L760.37 320ZM623.538 321L691.088 360L623.538 399L555.988 360L623.538 321ZM621.806 400L554.256 361L486.706 400L554.256 439L621.806 400ZM483.242 480L415.692 441L348.142 480L415.692 519L483.242 480ZM900.666 241L948.298 268.5C959.298 274.851 959.298 285.149 948.298 291.5L900.666 319L833.116 280L900.666 241ZM898.934 320L831.384 281L763.834 320L831.384 359L898.934 320ZM762.102 321L829.652 360L762.102 399L694.552 360L762.102 321ZM760.37 400L692.82 361L625.27 400L692.82 439L760.37 400ZM623.538 401L691.088 440L623.538 479L555.988 440L623.538 401ZM621.806 480L554.256 441L486.706 480L554.256 519L621.806 480Z" fill="white" fill-opacity="0.02"/>
<path d="M552.524 40L553.39 40.5L554.256 40L553.39 39.5L552.524 40ZM465.056 12.5L464.19 12L465.056 12.5ZM417.424 40L416.558 39.5L415.692 40L416.558 40.5L417.424 40ZM484.974 79L484.108 79.5L484.974 80L485.84 79.5L484.974 79ZM416.558 39.5L415.692 39L416.558 39.5ZM415.692 40L416.558 40.5L415.692 40ZM414.826 40.5L413.96 40L414.826 40.5ZM347.276 79.5L348.142 80L347.276 79.5ZM346.41 80L345.544 79.5L346.41 80ZM138.564 200L137.698 199.5L138.564 200ZM137.698 200.5L138.564 201L137.698 200.5ZM70.1479 239.5L69.2819 239L70.1479 239.5ZM505.759 548L504.893 547.5L505.759 548ZM554.256 520L555.122 520.5L554.256 520ZM555.122 519.5L554.256 519L555.122 519.5ZM622.672 480.5L623.538 481L622.672 480.5ZM623.538 480L622.672 479.5L623.538 480ZM624.404 479.5L625.27 480L624.404 479.5ZM691.954 440.5L691.088 440L691.954 440.5ZM692.82 440L693.686 440.5L692.82 440ZM762.102 400L761.236 399.5L762.102 400ZM762.968 399.5L763.834 400L762.968 399.5ZM830.518 360.5L829.652 360L830.518 360.5ZM831.384 360L832.25 360.5L831.384 360ZM900.666 320L901.532 320.5L900.666 320ZM901.532 319.5L900.666 319L901.532 319.5ZM949.164 292L950.03 292.5L949.164 292ZM415.692 41L416.558 40.5L415.692 40L414.826 40.5L415.692 41ZM483.242 80L484.108 80.5L484.974 80L484.108 79.5L483.242 80ZM348.142 80L347.276 79.5L346.41 80L347.276 80.5L348.142 80ZM415.692 119L414.826 119.5L415.692 120L416.558 119.5L415.692 119ZM413.96 120L414.826 120.5L415.692 120L414.826 119.5L413.96 120ZM346.41 81L347.276 80.5L346.41 80L345.544 80.5L346.41 81ZM346.41 159L345.544 159.5L346.41 160L347.276 159.5L346.41 159ZM278.86 120L277.994 119.5L277.128 120L277.994 120.5L278.86 120ZM277.128 121L277.994 120.5L277.128 120L276.262 120.5L277.128 121ZM344.678 160L345.544 160.5L346.41 160L345.544 159.5L344.678 160ZM209.578 160L208.712 159.5L207.846 160L208.712 160.5L209.578 160ZM277.128 199L276.262 199.5L277.128 200L277.994 199.5L277.128 199ZM275.396 200L276.262 200.5L277.128 200L276.262 199.5L275.396 200ZM207.846 161L208.712 160.5L207.846 160L206.98 160.5L207.846 161ZM207.846 239L206.98 239.5L207.846 240L208.712 239.5L207.846 239ZM140.296 200L139.43 199.5L138.564 200L139.43 200.5L140.296 200ZM138.564 201L139.43 200.5L138.564 200L137.698 200.5L138.564 201ZM206.114 240L206.98 240.5L207.846 240L206.98 239.5L206.114 240ZM71.014 240L70.1479 239.5L69.2819 240L70.1479 240.5L71.014 240ZM138.564 279L137.698 279.5L138.564 280L139.43 279.5L138.564 279ZM136.832 280L137.698 280.5L138.564 280L137.698 279.5L136.832 280ZM69.2819 241L70.1479 240.5L69.2819 240L68.4159 240.5L69.2819 241ZM69.2819 319L68.4159 319.5L69.2819 320L70.1479 319.5L69.2819 319ZM554.256 41L555.122 40.5L554.256 40L553.39 40.5L554.256 41ZM621.806 80L622.672 80.5L623.538 80L622.672 79.5L621.806 80ZM486.706 80L485.84 79.5L484.974 80L485.84 80.5L486.706 80ZM554.256 119L553.39 119.5L554.256 120L555.122 119.5L554.256 119ZM552.524 120L553.39 120.5L554.256 120L553.39 119.5L552.524 120ZM484.974 81L485.84 80.5L484.974 80L484.108 80.5L484.974 81ZM484.974 159L484.108 159.5L484.974 160L485.84 159.5L484.974 159ZM417.424 120L416.558 119.5L415.692 120L416.558 120.5L417.424 120ZM415.692 121L416.558 120.5L415.692 120L414.826 120.5L415.692 121ZM483.242 160L484.108 160.5L484.974 160L484.108 159.5L483.242 160ZM348.142 160L347.276 159.5L346.41 160L347.276 160.5L348.142 160ZM415.692 199L414.826 199.5L415.692 200L416.558 199.5L415.692 199ZM413.96 200L414.826 200.5L415.692 200L414.826 199.5L413.96 200ZM346.41 161L347.276 160.5L346.41 160L345.544 160.5L346.41 161ZM346.41 239L345.544 239.5L346.41 240L347.276 239.5L346.41 239ZM278.86 200L277.994 199.5L277.128 200L277.994 200.5L278.86 200ZM277.128 201L277.994 200.5L277.128 200L276.262 200.5L277.128 201ZM344.678 240L345.544 240.5L346.41 240L345.544 239.5L344.678 240ZM209.578 240L208.712 239.5L207.846 240L208.712 240.5L209.578 240ZM277.128 279L276.262 279.5L277.128 280L277.994 279.5L277.128 279ZM275.396 280L276.262 280.5L277.128 280L276.262 279.5L275.396 280ZM207.846 241L208.712 240.5L207.846 240L206.98 240.5L207.846 241ZM207.846 319L206.98 319.5L207.846 320L208.712 319.5L207.846 319ZM140.296 280L139.43 279.5L138.564 280L139.43 280.5L140.296 280ZM138.564 281L139.43 280.5L138.564 280L137.698 280.5L138.564 281ZM206.114 320L206.98 320.5L207.846 320L206.98 319.5L206.114 320ZM71.014 320L70.1479 319.5L69.2819 320L70.1479 320.5L71.014 320ZM138.564 359L137.698 359.5L138.564 360L139.43 359.5L138.564 359ZM623.538 81L624.404 80.5L623.538 80L622.672 80.5L623.538 81ZM623.538 159L622.672 159.5L623.538 160L624.404 159.5L623.538 159ZM555.988 120L555.122 119.5L554.256 120L555.122 120.5L555.988 120ZM554.256 121L555.122 120.5L554.256 120L553.39 120.5L554.256 121ZM621.806 160L622.672 160.5L623.538 160L622.672 159.5L621.806 160ZM486.706 160L485.84 159.5L484.974 160L485.84 160.5L486.706 160ZM554.256 199L553.39 199.5L554.256 200L555.122 199.5L554.256 199ZM552.524 200L553.39 200.5L554.256 200L553.39 199.5L552.524 200ZM484.974 161L485.84 160.5L484.974 160L484.108 160.5L484.974 161ZM484.974 239L484.108 239.5L484.974 240L485.84 239.5L484.974 239ZM417.424 200L416.558 199.5L415.692 200L416.558 200.5L417.424 200ZM415.692 201L416.558 200.5L415.692 200L414.826 200.5L415.692 201ZM483.242 240L484.108 240.5L484.974 240L484.108 239.5L483.242 240ZM348.142 240L347.276 239.5L346.41 240L347.276 240.5L348.142 240ZM415.692 279L414.826 279.5L415.692 280L416.558 279.5L415.692 279ZM413.96 280L414.826 280.5L415.692 280L414.826 279.5L413.96 280ZM346.41 241L347.276 240.5L346.41 240L345.544 240.5L346.41 241ZM346.41 319L345.544 319.5L346.41 320L347.276 319.5L346.41 319ZM278.86 280L277.994 279.5L277.128 280L277.994 280.5L278.86 280ZM277.128 281L277.994 280.5L277.128 280L276.262 280.5L277.128 281ZM344.678 320L345.544 320.5L346.41 320L345.544 319.5L344.678 320ZM209.578 320L208.712 319.5L207.846 320L208.712 320.5L209.578 320ZM277.128 359L276.262 359.5L277.128 360L277.994 359.5L277.128 359ZM275.396 360L276.262 360.5L277.128 360L276.262 359.5L275.396 360ZM207.846 321L208.712 320.5L207.846 320L206.98 320.5L207.846 321ZM207.846 399L206.98 399.5L207.846 400L208.712 399.5L207.846 399ZM140.296 360L139.43 359.5L138.564 360L139.43 360.5L140.296 360ZM760.37 160L761.236 160.5L762.102 160L761.236 159.5L760.37 160ZM672.902 132.5L672.036 132L672.902 132.5ZM625.27 160L624.404 159.5L623.538 160L624.404 160.5L625.27 160ZM692.82 199L691.954 199.5L692.82 200L693.686 199.5L692.82 199ZM691.088 200L691.954 200.5L692.82 200L691.954 199.5L691.088 200ZM623.538 161L624.404 160.5L623.538 160L622.672 160.5L623.538 161ZM623.538 239L622.672 239.5L623.538 240L624.404 239.5L623.538 239ZM555.988 200L555.122 199.5L554.256 200L555.122 200.5L555.988 200ZM554.256 201L555.122 200.5L554.256 200L553.39 200.5L554.256 201ZM621.806 240L622.672 240.5L623.538 240L622.672 239.5L621.806 240ZM486.706 240L485.84 239.5L484.974 240L485.84 240.5L486.706 240ZM554.256 279L553.39 279.5L554.256 280L555.122 279.5L554.256 279ZM552.524 280L553.39 280.5L554.256 280L553.39 279.5L552.524 280ZM484.974 241L485.84 240.5L484.974 240L484.108 240.5L484.974 241ZM484.974 319L484.108 319.5L484.974 320L485.84 319.5L484.974 319ZM417.424 280L416.558 279.5L415.692 280L416.558 280.5L417.424 280ZM415.692 281L416.558 280.5L415.692 280L414.826 280.5L415.692 281ZM483.242 320L484.108 320.5L484.974 320L484.108 319.5L483.242 320ZM348.142 320L347.276 319.5L346.41 320L347.276 320.5L348.142 320ZM415.692 359L414.826 359.5L415.692 360L416.558 359.5L415.692 359ZM413.96 360L414.826 360.5L415.692 360L414.826 359.5L413.96 360ZM346.41 321L347.276 320.5L346.41 320L345.544 320.5L346.41 321ZM346.41 399L345.544 399.5L346.41 400L347.276 399.5L346.41 399ZM278.86 360L277.994 359.5L277.128 360L277.994 360.5L278.86 360ZM277.128 361L277.994 360.5L277.128 360L276.262 360.5L277.128 361ZM344.678 400L345.544 400.5L346.41 400L345.544 399.5L344.678 400ZM209.578 400L208.712 399.5L207.846 400L208.712 400.5L209.578 400ZM277.128 439L276.262 439.5L277.128 440L277.994 439.5L277.128 439ZM829.652 200L830.518 200.5L831.384 200L830.518 199.5L829.652 200ZM762.102 161L762.968 160.5L762.102 160L761.236 160.5L762.102 161ZM762.102 239L761.236 239.5L762.102 240L762.968 239.5L762.102 239ZM694.552 200L693.686 199.5L692.82 200L693.686 200.5L694.552 200ZM692.82 201L693.686 200.5L692.82 200L691.954 200.5L692.82 201ZM760.37 240L761.236 240.5L762.102 240L761.236 239.5L760.37 240ZM625.27 240L624.404 239.5L623.538 240L624.404 240.5L625.27 240ZM692.82 279L691.954 279.5L692.82 280L693.686 279.5L692.82 279ZM691.088 280L691.954 280.5L692.82 280L691.954 279.5L691.088 280ZM623.538 241L624.404 240.5L623.538 240L622.672 240.5L623.538 241ZM623.538 319L622.672 319.5L623.538 320L624.404 319.5L623.538 319ZM555.988 280L555.122 279.5L554.256 280L555.122 280.5L555.988 280ZM554.256 281L555.122 280.5L554.256 280L553.39 280.5L554.256 281ZM621.806 320L622.672 320.5L623.538 320L622.672 319.5L621.806 320ZM486.706 320L485.84 319.5L484.974 320L485.84 320.5L486.706 320ZM554.256 359L553.39 359.5L554.256 360L555.122 359.5L554.256 359ZM552.524 360L553.39 360.5L554.256 360L553.39 359.5L552.524 360ZM484.974 321L485.84 320.5L484.974 320L484.108 320.5L484.974 321ZM484.974 399L484.108 399.5L484.974 400L485.84 399.5L484.974 399ZM417.424 360L416.558 359.5L415.692 360L416.558 360.5L417.424 360ZM415.692 361L416.558 360.5L415.692 360L414.826 360.5L415.692 361ZM483.242 400L484.108 400.5L484.974 400L484.108 399.5L483.242 400ZM348.142 400L347.276 399.5L346.41 400L347.276 400.5L348.142 400ZM415.692 439L414.826 439.5L415.692 440L416.558 439.5L415.692 439ZM413.96 440L414.826 440.5L415.692 440L414.826 439.5L413.96 440ZM346.41 401L347.276 400.5L346.41 400L345.544 400.5L346.41 401ZM346.41 479L345.544 479.5L346.41 480L347.276 479.5L346.41 479ZM278.86 440L277.994 439.5L277.128 440L277.994 440.5L278.86 440ZM831.384 201L832.25 200.5L831.384 200L830.518 200.5L831.384 201ZM898.934 240L899.8 240.5L900.666 240L899.8 239.5L898.934 240ZM763.834 240L762.968 239.5L762.102 240L762.968 240.5L763.834 240ZM831.384 279L830.518 279.5L831.384 280L832.25 279.5L831.384 279ZM829.652 280L830.518 280.5L831.384 280L830.518 279.5L829.652 280ZM762.102 241L762.968 240.5L762.102 240L761.236 240.5L762.102 241ZM762.102 319L761.236 319.5L762.102 320L762.968 319.5L762.102 319ZM694.552 280L693.686 279.5L692.82 280L693.686 280.5L694.552 280ZM692.82 281L693.686 280.5L692.82 280L691.954 280.5L692.82 281ZM760.37 320L761.236 320.5L762.102 320L761.236 319.5L760.37 320ZM625.27 320L624.404 319.5L623.538 320L624.404 320.5L625.27 320ZM692.82 359L691.954 359.5L692.82 360L693.686 359.5L692.82 359ZM691.088 360L691.954 360.5L692.82 360L691.954 359.5L691.088 360ZM623.538 321L624.404 320.5L623.538 320L622.672 320.5L623.538 321ZM623.538 399L622.672 399.5L623.538 400L624.404 399.5L623.538 399ZM555.988 360L555.122 359.5L554.256 360L555.122 360.5L555.988 360ZM554.256 361L555.122 360.5L554.256 360L553.39 360.5L554.256 361ZM621.806 400L622.672 400.5L623.538 400L622.672 399.5L621.806 400ZM486.706 400L485.84 399.5L484.974 400L485.84 400.5L486.706 400ZM554.256 439L553.39 439.5L554.256 440L555.122 439.5L554.256 439ZM415.692 441L416.558 440.5L415.692 440L414.826 440.5L415.692 441ZM483.242 480L484.108 480.5L484.974 480L484.108 479.5L483.242 480ZM348.142 480L347.276 479.5L346.41 480L347.276 480.5L348.142 480ZM415.692 519L414.826 519.5L415.692 520L416.558 519.5L415.692 519ZM900.666 241L901.532 240.5L900.666 240L899.8 240.5L900.666 241ZM948.298 291.5L949.164 292L948.298 291.5ZM900.666 319L899.8 319.5L900.666 320L901.532 319.5L900.666 319ZM833.116 280L832.25 279.5L831.384 280L832.25 280.5L833.116 280ZM831.384 281L832.25 280.5L831.384 280L830.518 280.5L831.384 281ZM898.934 320L899.8 320.5L900.666 320L899.8 319.5L898.934 320ZM763.834 320L762.968 319.5L762.102 320L762.968 320.5L763.834 320ZM831.384 359L830.518 359.5L831.384 360L832.25 359.5L831.384 359ZM829.652 360L830.518 360.5L831.384 360L830.518 359.5L829.652 360ZM762.102 321L762.968 320.5L762.102 320L761.236 320.5L762.102 321ZM762.102 399L761.236 399.5L762.102 400L762.968 399.5L762.102 399ZM694.552 360L693.686 359.5L692.82 360L693.686 360.5L694.552 360ZM692.82 361L693.686 360.5L692.82 360L691.954 360.5L692.82 361ZM760.37 400L761.236 400.5L762.102 400L761.236 399.5L760.37 400ZM625.27 400L624.404 399.5L623.538 400L624.404 400.5L625.27 400ZM692.82 439L691.954 439.5L692.82 440L693.686 439.5L692.82 439ZM691.088 440L691.954 440.5L692.82 440L691.954 439.5L691.088 440ZM623.538 401L624.404 400.5L623.538 400L622.672 400.5L623.538 401ZM623.538 479L622.672 479.5L623.538 480L624.404 479.5L623.538 479ZM555.988 440L555.122 439.5L554.256 440L555.122 440.5L555.988 440ZM554.256 441L555.122 440.5L554.256 440L553.39 440.5L554.256 441ZM621.806 480L622.672 480.5L623.538 480L622.672 479.5L621.806 480ZM486.706 480L485.84 479.5L484.974 480L485.84 480.5L486.706 480ZM554.256 519L553.39 519.5L554.256 520L555.122 519.5L554.256 519ZM504.027 13L551.658 40.5L553.39 39.5L505.759 12L504.027 13ZM465.922 13C476.444 6.92487 493.504 6.92487 504.027 13L505.759 12C494.28 5.37258 475.669 5.37258 464.19 12L465.922 13ZM418.29 40.5L465.922 13L464.19 12L416.558 39.5L418.29 40.5ZM485.84 78.5L418.29 39.5L416.558 40.5L484.108 79.5L485.84 78.5ZM551.658 39.5L484.108 78.5L485.84 79.5L553.39 40.5L551.658 39.5ZM465.056 12.5C476.056 6.14873 493.892 6.14873 504.893 12.5L506.625 11.5C494.667 4.59644 475.281 4.59644 463.323 11.5L465.056 12.5ZM417.424 40L465.056 12.5L463.323 11.5L415.692 39L417.424 40ZM416.558 40.5L417.424 40L415.692 39L414.826 39.5L416.558 40.5ZM415.692 41L416.558 40.5L414.826 39.5L413.96 40L415.692 41ZM348.142 80L415.692 41L413.96 40L346.41 79L348.142 80ZM347.276 80.5L348.142 80L346.41 79L345.544 79.5L347.276 80.5ZM346.41 81L347.276 80.5L345.544 79.5L344.678 80L346.41 81ZM278.86 120L346.41 81L344.678 80L277.128 119L278.86 120ZM277.994 120.5L278.86 120L277.128 119L276.262 119.5L277.994 120.5ZM277.128 121L277.994 120.5L276.262 119.5L275.396 120L277.128 121ZM209.578 160L277.128 121L275.396 120L207.846 159L209.578 160ZM208.712 160.5L209.578 160L207.846 159L206.98 159.5L208.712 160.5ZM207.846 161L208.712 160.5L206.98 159.5L206.114 160L207.846 161ZM140.296 200L207.846 161L206.114 160L138.564 199L140.296 200ZM139.43 200.5L140.296 200L138.564 199L137.698 199.5L139.43 200.5ZM138.564 201L139.43 200.5L137.698 199.5L136.832 200L138.564 201ZM71.014 240L138.564 201L136.832 200L69.2819 239L71.014 240ZM70.1479 240.5L71.014 240L69.2819 239L68.4159 239.5L70.1479 240.5ZM69.2819 241L70.1479 240.5L68.4159 239.5L67.5499 240L69.2819 241ZM21.6505 268.5L69.2819 241L67.5499 240L19.9185 267.5L21.6505 268.5ZM21.6505 291.5C10.6498 285.149 10.6498 274.851 21.6505 268.5L19.9185 267.5C7.96113 274.404 7.96114 285.596 19.9185 292.5L21.6505 291.5ZM69.2819 319L21.6505 291.5L19.9185 292.5L67.5499 320L69.2819 319ZM70.1479 319.5L69.2819 319L67.5499 320L68.4159 320.5L70.1479 319.5ZM71.014 320L70.1479 319.5L68.4159 320.5L69.2819 321L71.014 320ZM138.564 359L71.014 320L69.2819 321L136.832 360L138.564 359ZM139.43 359.5L138.564 359L136.832 360L137.698 360.5L139.43 359.5ZM140.296 360L139.43 359.5L137.698 360.5L138.564 361L140.296 360ZM207.846 399L140.296 360L138.564 361L206.114 400L207.846 399ZM208.712 399.5L207.846 399L206.114 400L206.98 400.5L208.712 399.5ZM209.578 400L208.712 399.5L206.98 400.5L207.846 401L209.578 400ZM277.128 439L209.578 400L207.846 401L275.396 440L277.128 439ZM277.994 439.5L277.128 439L275.396 440L276.262 440.5L277.994 439.5ZM278.86 440L277.994 439.5L276.262 440.5L277.128 441L278.86 440ZM346.41 479L278.86 440L277.128 441L344.678 480L346.41 479ZM347.276 479.5L346.41 479L344.678 480L345.544 480.5L347.276 479.5ZM348.142 480L347.276 479.5L345.544 480.5L346.41 481L348.142 480ZM415.692 519L348.142 480L346.41 481L413.96 520L415.692 519ZM416.558 519.5L415.692 519L413.96 520L414.826 520.5L416.558 519.5ZM465.056 547.5L416.558 519.5L414.826 520.5L463.323 548.5L465.056 547.5ZM504.893 547.5C493.892 553.851 476.056 553.851 465.056 547.5L463.323 548.5C475.281 555.404 494.667 555.404 506.625 548.5L504.893 547.5ZM553.39 519.5L504.893 547.5L506.625 548.5L555.122 520.5L553.39 519.5ZM554.256 519L553.39 519.5L555.122 520.5L555.988 520L554.256 519ZM621.806 480L554.256 519L555.988 520L623.538 481L621.806 480ZM622.672 479.5L621.806 480L623.538 481L624.404 480.5L622.672 479.5ZM623.538 479L622.672 479.5L624.404 480.5L625.27 480L623.538 479ZM691.088 440L623.538 479L625.27 480L692.82 441L691.088 440ZM691.954 439.5L691.088 440L692.82 441L693.686 440.5L691.954 439.5ZM692.82 439L691.954 439.5L693.686 440.5L694.552 440L692.82 439ZM760.37 400L692.82 439L694.552 440L762.102 401L760.37 400ZM761.236 399.5L760.37 400L762.102 401L762.968 400.5L761.236 399.5ZM762.102 399L761.236 399.5L762.968 400.5L763.834 400L762.102 399ZM829.652 360L762.102 399L763.834 400L831.384 361L829.652 360ZM830.518 359.5L829.652 360L831.384 361L832.25 360.5L830.518 359.5ZM831.384 359L830.518 359.5L832.25 360.5L833.116 360L831.384 359ZM898.934 320L831.384 359L833.116 360L900.666 321L898.934 320ZM899.8 319.5L898.934 320L900.666 321L901.532 320.5L899.8 319.5ZM900.666 319L899.8 319.5L901.532 320.5L902.398 320L900.666 319ZM948.298 291.5L900.666 319L902.398 320L950.03 292.5L948.298 291.5ZM948.298 268.5C959.298 274.851 959.298 285.149 948.298 291.5L950.03 292.5C961.987 285.596 961.987 274.404 950.03 267.5L948.298 268.5ZM900.666 241L948.298 268.5L950.03 267.5L902.398 240L900.666 241ZM899.8 240.5L900.666 241L902.398 240L901.532 239.5L899.8 240.5ZM898.934 240L899.8 240.5L901.532 239.5L900.666 239L898.934 240ZM831.384 201L898.934 240L900.666 239L833.116 200L831.384 201ZM830.518 200.5L831.384 201L833.116 200L832.25 199.5L830.518 200.5ZM829.652 200L830.518 200.5L832.25 199.5L831.384 199L829.652 200ZM762.102 161L829.652 200L831.384 199L763.834 160L762.102 161ZM761.236 160.5L762.102 161L763.834 160L762.968 159.5L761.236 160.5ZM760.37 160L761.236 160.5L762.968 159.5L762.102 159L760.37 160ZM712.739 132.5L760.37 160L762.102 159L714.471 131.5L712.739 132.5ZM672.902 132.5C683.902 126.149 701.738 126.149 712.739 132.5L714.471 131.5C702.514 124.596 683.127 124.596 671.17 131.5L672.902 132.5ZM671.17 108.5C682.17 114.851 682.17 125.149 671.17 131.5L672.902 132.5C684.859 125.596 684.859 114.404 672.902 107.5L671.17 108.5ZM623.538 81L671.17 108.5L672.902 107.5L625.27 80L623.538 81ZM622.672 80.5L623.538 81L625.27 80L624.404 79.5L622.672 80.5ZM621.806 80L622.672 80.5L624.404 79.5L623.538 79L621.806 80ZM554.256 41L621.806 80L623.538 79L555.988 40L554.256 41ZM553.39 40.5L554.256 41L555.988 40L555.122 39.5L553.39 40.5ZM552.524 40L553.39 40.5L555.122 39.5L554.256 39L552.524 40ZM504.893 12.5L552.524 40L554.256 39L506.625 11.5L504.893 12.5ZM414.826 41.5L482.376 80.5L484.108 79.5L416.558 40.5L414.826 41.5ZM349.008 80.5L416.558 41.5L414.826 40.5L347.276 79.5L349.008 80.5ZM416.558 118.5L349.008 79.5L347.276 80.5L414.826 119.5L416.558 118.5ZM482.376 79.5L414.826 118.5L416.558 119.5L484.108 80.5L482.376 79.5ZM414.826 119.5L347.276 80.5L345.544 81.5L413.094 120.5L414.826 119.5ZM347.276 159.5L414.826 120.5L413.094 119.5L345.544 158.5L347.276 159.5ZM277.994 120.5L345.544 159.5L347.276 158.5L279.726 119.5L277.994 120.5ZM345.544 80.5L277.994 119.5L279.726 120.5L347.276 81.5L345.544 80.5ZM276.262 121.5L343.812 160.5L345.544 159.5L277.994 120.5L276.262 121.5ZM210.444 160.5L277.994 121.5L276.262 120.5L208.712 159.5L210.444 160.5ZM277.994 198.5L210.444 159.5L208.712 160.5L276.262 199.5L277.994 198.5ZM343.812 159.5L276.262 198.5L277.994 199.5L345.544 160.5L343.812 159.5ZM276.262 199.5L208.712 160.5L206.98 161.5L274.53 200.5L276.262 199.5ZM208.712 239.5L276.262 200.5L274.53 199.5L206.98 238.5L208.712 239.5ZM139.43 200.5L206.98 239.5L208.712 238.5L141.162 199.5L139.43 200.5ZM206.98 160.5L139.43 199.5L141.162 200.5L208.712 161.5L206.98 160.5ZM137.698 201.5L205.248 240.5L206.98 239.5L139.43 200.5L137.698 201.5ZM71.88 240.5L139.43 201.5L137.698 200.5L70.1479 239.5L71.88 240.5ZM139.43 278.5L71.88 239.5L70.1479 240.5L137.698 279.5L139.43 278.5ZM205.248 239.5L137.698 278.5L139.43 279.5L206.98 240.5L205.248 239.5ZM137.698 279.5L70.1479 240.5L68.4159 241.5L135.966 280.5L137.698 279.5ZM70.1479 319.5L137.698 280.5L135.966 279.5L68.4159 318.5L70.1479 319.5ZM20.7845 292L68.4159 319.5L70.1479 318.5L22.5165 291L20.7845 292ZM20.7845 268C9.30547 274.627 9.30546 285.373 20.7845 292L22.5165 291C11.9941 284.925 11.9941 275.075 22.5165 269L20.7845 268ZM68.4159 240.5L20.7845 268L22.5165 269L70.1479 241.5L68.4159 240.5ZM553.39 41.5L620.94 80.5L622.672 79.5L555.122 40.5L553.39 41.5ZM487.572 80.5L555.122 41.5L553.39 40.5L485.84 79.5L487.572 80.5ZM555.122 118.5L487.572 79.5L485.84 80.5L553.39 119.5L555.122 118.5ZM620.94 79.5L553.39 118.5L555.122 119.5L622.672 80.5L620.94 79.5ZM553.39 119.5L485.84 80.5L484.108 81.5L551.658 120.5L553.39 119.5ZM485.84 159.5L553.39 120.5L551.658 119.5L484.108 158.5L485.84 159.5ZM416.558 120.5L484.108 159.5L485.84 158.5L418.29 119.5L416.558 120.5ZM484.108 80.5L416.558 119.5L418.29 120.5L485.84 81.5L484.108 80.5ZM414.826 121.5L482.376 160.5L484.108 159.5L416.558 120.5L414.826 121.5ZM349.008 160.5L416.558 121.5L414.826 120.5L347.276 159.5L349.008 160.5ZM416.558 198.5L349.008 159.5L347.276 160.5L414.826 199.5L416.558 198.5ZM482.376 159.5L414.826 198.5L416.558 199.5L484.108 160.5L482.376 159.5ZM414.826 199.5L347.276 160.5L345.544 161.5L413.094 200.5L414.826 199.5ZM347.276 239.5L414.826 200.5L413.094 199.5L345.544 238.5L347.276 239.5ZM277.994 200.5L345.544 239.5L347.276 238.5L279.726 199.5L277.994 200.5ZM345.544 160.5L277.994 199.5L279.726 200.5L347.276 161.5L345.544 160.5ZM276.262 201.5L343.812 240.5L345.544 239.5L277.994 200.5L276.262 201.5ZM210.444 240.5L277.994 201.5L276.262 200.5L208.712 239.5L210.444 240.5ZM277.994 278.5L210.444 239.5L208.712 240.5L276.262 279.5L277.994 278.5ZM343.812 239.5L276.262 278.5L277.994 279.5L345.544 240.5L343.812 239.5ZM276.262 279.5L208.712 240.5L206.98 241.5L274.53 280.5L276.262 279.5ZM208.712 319.5L276.262 280.5L274.53 279.5L206.98 318.5L208.712 319.5ZM139.43 280.5L206.98 319.5L208.712 318.5L141.162 279.5L139.43 280.5ZM206.98 240.5L139.43 279.5L141.162 280.5L208.712 241.5L206.98 240.5ZM137.698 281.5L205.248 320.5L206.98 319.5L139.43 280.5L137.698 281.5ZM71.88 320.5L139.43 281.5L137.698 280.5L70.1479 319.5L71.88 320.5ZM139.43 358.5L71.88 319.5L70.1479 320.5L137.698 359.5L139.43 358.5ZM205.248 319.5L137.698 358.5L139.43 359.5L206.98 320.5L205.248 319.5ZM672.036 108L624.404 80.5L622.672 81.5L670.304 109L672.036 108ZM672.036 132C683.515 125.373 683.515 114.627 672.036 108L670.304 109C680.826 115.075 680.826 124.925 670.304 131L672.036 132ZM624.404 159.5L672.036 132L670.304 131L622.672 158.5L624.404 159.5ZM555.122 120.5L622.672 159.5L624.404 158.5L556.854 119.5L555.122 120.5ZM622.672 80.5L555.122 119.5L556.854 120.5L624.404 81.5L622.672 80.5ZM553.39 121.5L620.94 160.5L622.672 159.5L555.122 120.5L553.39 121.5ZM487.572 160.5L555.122 121.5L553.39 120.5L485.84 159.5L487.572 160.5ZM555.122 198.5L487.572 159.5L485.84 160.5L553.39 199.5L555.122 198.5ZM620.94 159.5L553.39 198.5L555.122 199.5L622.672 160.5L620.94 159.5ZM553.39 199.5L485.84 160.5L484.108 161.5L551.658 200.5L553.39 199.5ZM485.84 239.5L553.39 200.5L551.658 199.5L484.108 238.5L485.84 239.5ZM416.558 200.5L484.108 239.5L485.84 238.5L418.29 199.5L416.558 200.5ZM484.108 160.5L416.558 199.5L418.29 200.5L485.84 161.5L484.108 160.5ZM414.826 201.5L482.376 240.5L484.108 239.5L416.558 200.5L414.826 201.5ZM349.008 240.5L416.558 201.5L414.826 200.5L347.276 239.5L349.008 240.5ZM416.558 278.5L349.008 239.5L347.276 240.5L414.826 279.5L416.558 278.5ZM482.376 239.5L414.826 278.5L416.558 279.5L484.108 240.5L482.376 239.5ZM414.826 279.5L347.276 240.5L345.544 241.5L413.094 280.5L414.826 279.5ZM347.276 319.5L414.826 280.5L413.094 279.5L345.544 318.5L347.276 319.5ZM277.994 280.5L345.544 319.5L347.276 318.5L279.726 279.5L277.994 280.5ZM345.544 240.5L277.994 279.5L279.726 280.5L347.276 241.5L345.544 240.5ZM276.262 281.5L343.812 320.5L345.544 319.5L277.994 280.5L276.262 281.5ZM210.444 320.5L277.994 281.5L276.262 280.5L208.712 319.5L210.444 320.5ZM277.994 358.5L210.444 319.5L208.712 320.5L276.262 359.5L277.994 358.5ZM343.812 319.5L276.262 358.5L277.994 359.5L345.544 320.5L343.812 319.5ZM276.262 359.5L208.712 320.5L206.98 321.5L274.53 360.5L276.262 359.5ZM208.712 399.5L276.262 360.5L274.53 359.5L206.98 398.5L208.712 399.5ZM139.43 360.5L206.98 399.5L208.712 398.5L141.162 359.5L139.43 360.5ZM206.98 320.5L139.43 359.5L141.162 360.5L208.712 321.5L206.98 320.5ZM711.873 133L759.504 160.5L761.236 159.5L713.605 132L711.873 133ZM673.768 133C684.29 126.925 701.35 126.925 711.873 133L713.605 132C702.126 125.373 683.515 125.373 672.036 132L673.768 133ZM626.136 160.5L673.768 133L672.036 132L624.404 159.5L626.136 160.5ZM693.686 198.5L626.136 159.5L624.404 160.5L691.954 199.5L693.686 198.5ZM759.504 159.5L691.954 198.5L693.686 199.5L761.236 160.5L759.504 159.5ZM691.954 199.5L624.404 160.5L622.672 161.5L690.222 200.5L691.954 199.5ZM624.404 239.5L691.954 200.5L690.222 199.5L622.672 238.5L624.404 239.5ZM555.122 200.5L622.672 239.5L624.404 238.5L556.854 199.5L555.122 200.5ZM622.672 160.5L555.122 199.5L556.854 200.5L624.404 161.5L622.672 160.5ZM553.39 201.5L620.94 240.5L622.672 239.5L555.122 200.5L553.39 201.5ZM487.572 240.5L555.122 201.5L553.39 200.5L485.84 239.5L487.572 240.5ZM555.122 278.5L487.572 239.5L485.84 240.5L553.39 279.5L555.122 278.5ZM620.94 239.5L553.39 278.5L555.122 279.5L622.672 240.5L620.94 239.5ZM553.39 279.5L485.84 240.5L484.108 241.5L551.658 280.5L553.39 279.5ZM485.84 319.5L553.39 280.5L551.658 279.5L484.108 318.5L485.84 319.5ZM416.558 280.5L484.108 319.5L485.84 318.5L418.29 279.5L416.558 280.5ZM484.108 240.5L416.558 279.5L418.29 280.5L485.84 241.5L484.108 240.5ZM414.826 281.5L482.376 320.5L484.108 319.5L416.558 280.5L414.826 281.5ZM349.008 320.5L416.558 281.5L414.826 280.5L347.276 319.5L349.008 320.5ZM416.558 358.5L349.008 319.5L347.276 320.5L414.826 359.5L416.558 358.5ZM482.376 319.5L414.826 358.5L416.558 359.5L484.108 320.5L482.376 319.5ZM414.826 359.5L347.276 320.5L345.544 321.5L413.094 360.5L414.826 359.5ZM347.276 399.5L414.826 360.5L413.094 359.5L345.544 398.5L347.276 399.5ZM277.994 360.5L345.544 399.5L347.276 398.5L279.726 359.5L277.994 360.5ZM345.544 320.5L277.994 359.5L279.726 360.5L347.276 321.5L345.544 320.5ZM276.262 361.5L343.812 400.5L345.544 399.5L277.994 360.5L276.262 361.5ZM210.444 400.5L277.994 361.5L276.262 360.5L208.712 399.5L210.444 400.5ZM277.994 438.5L210.444 399.5L208.712 400.5L276.262 439.5L277.994 438.5ZM343.812 399.5L276.262 438.5L277.994 439.5L345.544 400.5L343.812 399.5ZM830.518 199.5L762.968 160.5L761.236 161.5L828.786 200.5L830.518 199.5ZM762.968 239.5L830.518 200.5L828.786 199.5L761.236 238.5L762.968 239.5ZM693.686 200.5L761.236 239.5L762.968 238.5L695.418 199.5L693.686 200.5ZM761.236 160.5L693.686 199.5L695.418 200.5L762.968 161.5L761.236 160.5ZM691.954 201.5L759.504 240.5L761.236 239.5L693.686 200.5L691.954 201.5ZM626.136 240.5L693.686 201.5L691.954 200.5L624.404 239.5L626.136 240.5ZM693.686 278.5L626.136 239.5L624.404 240.5L691.954 279.5L693.686 278.5ZM759.504 239.5L691.954 278.5L693.686 279.5L761.236 240.5L759.504 239.5ZM691.954 279.5L624.404 240.5L622.672 241.5L690.222 280.5L691.954 279.5ZM624.404 319.5L691.954 280.5L690.222 279.5L622.672 318.5L624.404 319.5ZM555.122 280.5L622.672 319.5L624.404 318.5L556.854 279.5L555.122 280.5ZM622.672 240.5L555.122 279.5L556.854 280.5L624.404 241.5L622.672 240.5ZM553.39 281.5L620.94 320.5L622.672 319.5L555.122 280.5L553.39 281.5ZM487.572 320.5L555.122 281.5L553.39 280.5L485.84 319.5L487.572 320.5ZM555.122 358.5L487.572 319.5L485.84 320.5L553.39 359.5L555.122 358.5ZM620.94 319.5L553.39 358.5L555.122 359.5L622.672 320.5L620.94 319.5ZM553.39 359.5L485.84 320.5L484.108 321.5L551.658 360.5L553.39 359.5ZM485.84 399.5L553.39 360.5L551.658 359.5L484.108 398.5L485.84 399.5ZM416.558 360.5L484.108 399.5L485.84 398.5L418.29 359.5L416.558 360.5ZM484.108 320.5L416.558 359.5L418.29 360.5L485.84 321.5L484.108 320.5ZM414.826 361.5L482.376 400.5L484.108 399.5L416.558 360.5L414.826 361.5ZM349.008 400.5L416.558 361.5L414.826 360.5L347.276 399.5L349.008 400.5ZM416.558 438.5L349.008 399.5L347.276 400.5L414.826 439.5L416.558 438.5ZM482.376 399.5L414.826 438.5L416.558 439.5L484.108 400.5L482.376 399.5ZM414.826 439.5L347.276 400.5L345.544 401.5L413.094 440.5L414.826 439.5ZM347.276 479.5L414.826 440.5L413.094 439.5L345.544 478.5L347.276 479.5ZM277.994 440.5L345.544 479.5L347.276 478.5L279.726 439.5L277.994 440.5ZM345.544 400.5L277.994 439.5L279.726 440.5L347.276 401.5L345.544 400.5ZM830.518 201.5L898.068 240.5L899.8 239.5L832.25 200.5L830.518 201.5ZM764.7 240.5L832.25 201.5L830.518 200.5L762.968 239.5L764.7 240.5ZM832.25 278.5L764.7 239.5L762.968 240.5L830.518 279.5L832.25 278.5ZM898.068 239.5L830.518 278.5L832.25 279.5L899.8 240.5L898.068 239.5ZM830.518 279.5L762.968 240.5L761.236 241.5L828.786 280.5L830.518 279.5ZM762.968 319.5L830.518 280.5L828.786 279.5L761.236 318.5L762.968 319.5ZM693.686 280.5L761.236 319.5L762.968 318.5L695.418 279.5L693.686 280.5ZM761.236 240.5L693.686 279.5L695.418 280.5L762.968 241.5L761.236 240.5ZM691.954 281.5L759.504 320.5L761.236 319.5L693.686 280.5L691.954 281.5ZM626.136 320.5L693.686 281.5L691.954 280.5L624.404 319.5L626.136 320.5ZM693.686 358.5L626.136 319.5L624.404 320.5L691.954 359.5L693.686 358.5ZM759.504 319.5L691.954 358.5L693.686 359.5L761.236 320.5L759.504 319.5ZM691.954 359.5L624.404 320.5L622.672 321.5L690.222 360.5L691.954 359.5ZM624.404 399.5L691.954 360.5L690.222 359.5L622.672 398.5L624.404 399.5ZM555.122 360.5L622.672 399.5L624.404 398.5L556.854 359.5L555.122 360.5ZM622.672 320.5L555.122 359.5L556.854 360.5L624.404 321.5L622.672 320.5ZM553.39 361.5L620.94 400.5L622.672 399.5L555.122 360.5L553.39 361.5ZM487.572 400.5L555.122 361.5L553.39 360.5L485.84 399.5L487.572 400.5ZM555.122 438.5L487.572 399.5L485.84 400.5L553.39 439.5L555.122 438.5ZM620.94 399.5L553.39 438.5L555.122 439.5L622.672 400.5L620.94 399.5ZM414.826 441.5L482.376 480.5L484.108 479.5L416.558 440.5L414.826 441.5ZM349.008 480.5L416.558 441.5L414.826 440.5L347.276 479.5L349.008 480.5ZM416.558 518.5L349.008 479.5L347.276 480.5L414.826 519.5L416.558 518.5ZM482.376 479.5L414.826 518.5L416.558 519.5L484.108 480.5L482.376 479.5ZM949.164 268L901.532 240.5L899.8 241.5L947.432 269L949.164 268ZM949.164 292C960.643 285.373 960.643 274.627 949.164 268L947.432 269C957.954 275.075 957.954 284.925 947.432 291L949.164 292ZM901.532 319.5L949.164 292L947.432 291L899.8 318.5L901.532 319.5ZM832.25 280.5L899.8 319.5L901.532 318.5L833.982 279.5L832.25 280.5ZM899.8 240.5L832.25 279.5L833.982 280.5L901.532 241.5L899.8 240.5ZM830.518 281.5L898.068 320.5L899.8 319.5L832.25 280.5L830.518 281.5ZM764.7 320.5L832.25 281.5L830.518 280.5L762.968 319.5L764.7 320.5ZM832.25 358.5L764.7 319.5L762.968 320.5L830.518 359.5L832.25 358.5ZM898.068 319.5L830.518 358.5L832.25 359.5L899.8 320.5L898.068 319.5ZM830.518 359.5L762.968 320.5L761.236 321.5L828.786 360.5L830.518 359.5ZM762.968 399.5L830.518 360.5L828.786 359.5L761.236 398.5L762.968 399.5ZM693.686 360.5L761.236 399.5L762.968 398.5L695.418 359.5L693.686 360.5ZM761.236 320.5L693.686 359.5L695.418 360.5L762.968 321.5L761.236 320.5ZM691.954 361.5L759.504 400.5L761.236 399.5L693.686 360.5L691.954 361.5ZM626.136 400.5L693.686 361.5L691.954 360.5L624.404 399.5L626.136 400.5ZM693.686 438.5L626.136 399.5L624.404 400.5L691.954 439.5L693.686 438.5ZM759.504 399.5L691.954 438.5L693.686 439.5L761.236 400.5L759.504 399.5ZM691.954 439.5L624.404 400.5L622.672 401.5L690.222 440.5L691.954 439.5ZM624.404 479.5L691.954 440.5L690.222 439.5L622.672 478.5L624.404 479.5ZM555.122 440.5L622.672 479.5L624.404 478.5L556.854 439.5L555.122 440.5ZM622.672 400.5L555.122 439.5L556.854 440.5L624.404 401.5L622.672 400.5ZM553.39 441.5L620.94 480.5L622.672 479.5L555.122 440.5L553.39 441.5ZM487.572 480.5L555.122 441.5L553.39 440.5L485.84 479.5L487.572 480.5ZM555.122 518.5L487.572 479.5L485.84 480.5L553.39 519.5L555.122 518.5ZM620.94 479.5L553.39 518.5L555.122 519.5L622.672 480.5L620.94 479.5Z" fill="url(#paint0_radial_614_25764)" mask="url(#path-1-inside-1_614_25764)"/>
<mask id="path-3-inside-2_614_25764" fill="white">
<path fill-rule="evenodd" clip-rule="evenodd" d="M791.424 40L839.056 12.5C850.056 6.14873 867.892 6.14873 878.893 12.5L926.524 40L858.974 79L791.424 40ZM838.19 12C849.669 5.37258 868.28 5.37258 879.759 12L927.39 39.5L928.256 40L929.122 40.5L996.672 79.5L997.538 80L1066.82 120L1067.69 120.5L1135.24 159.5L1136.1 160L1136.97 160.5L1204.52 199.5L1205.38 200L1206.25 200.5L1273.8 239.5L1274.67 240L1323.16 268C1334.64 274.627 1334.64 285.373 1323.16 292L1274.67 320L1273.8 320.5L1206.25 359.5L1205.38 360L1204.52 360.5L1136.97 399.5L1136.1 400L1135.24 400.5L1067.69 439.5L1066.82 440L1065.95 440.5L998.404 479.5L997.538 480L996.672 480.5L929.122 519.5L928.256 520L879.759 548C868.28 554.627 849.669 554.627 838.19 548L789.692 520L788.826 519.5L721.276 480.5L720.41 480L719.544 479.5L651.994 440.5L651.128 440L581.846 400L580.98 399.5L513.43 360.5L512.564 360L511.698 359.5L444.148 320.5L443.282 320L442.416 319.5L394.785 292C383.305 285.373 383.306 274.627 394.785 268L442.416 240.5L443.282 240L444.148 239.5L511.698 200.5L512.564 200L513.43 199.5L580.98 160.5L581.846 160L582.712 159.5L630.343 132C641.822 125.373 660.434 125.373 671.913 132C660.434 125.373 660.434 114.627 671.913 108L719.544 80.5L720.41 80L789.692 40L790.558 39.5L838.19 12ZM860.706 80L928.256 41L995.806 80L928.256 119L860.706 80ZM999.27 160L1066.82 121L1134.37 160L1066.82 199L999.27 160ZM1136.1 161L1068.55 200L1136.1 239L1203.65 200L1136.1 161ZM1137.83 240L1205.38 201L1272.93 240L1205.38 279L1137.83 240ZM858.974 81L791.424 120L858.974 159L926.524 120L858.974 81ZM860.706 160L928.256 121L995.806 160L928.256 199L860.706 160ZM997.538 161L929.988 200L997.538 239L1065.09 200L997.538 161ZM999.27 240L1066.82 201L1134.37 240L1066.82 279L999.27 240ZM1136.1 241L1068.55 280L1136.1 319L1203.65 280L1136.1 241ZM1137.83 320L1205.38 281L1272.93 320L1205.38 359L1137.83 320ZM720.41 81L672.779 108.5C661.778 114.851 661.778 125.149 672.779 131.5L720.41 159L787.96 120L720.41 81ZM722.142 160L789.692 121L857.242 160L789.692 199L722.142 160ZM858.974 161L791.424 200L858.974 239L926.524 200L858.974 161ZM860.706 240L928.256 201L995.806 240L928.256 279L860.706 240ZM999.27 320L1066.82 281L1134.37 320L1066.82 359L999.27 320ZM1136.1 321L1068.55 360L1136.1 399L1203.65 360L1136.1 321ZM583.578 160L631.209 132.5C642.21 126.149 660.046 126.149 671.047 132.5L718.678 160L651.128 199L583.578 160ZM720.41 161L652.86 200L720.41 239L787.96 200L720.41 161ZM722.142 240L789.692 201L857.242 240L789.692 279L722.142 240ZM858.974 241L791.424 280L858.974 319L926.524 280L858.974 241ZM860.706 320L928.256 281L995.806 320L928.256 359L860.706 320ZM997.538 321L929.988 360L997.538 399L1065.09 360L997.538 321ZM999.27 400L1066.82 361L1134.37 400L1066.82 439L999.27 400ZM581.846 161L514.296 200L581.846 239L649.396 200L581.846 161ZM583.578 240L651.128 201L718.678 240L651.128 279L583.578 240ZM720.41 241L652.86 280L720.41 319L787.96 280L720.41 241ZM722.142 320L789.692 281L857.242 320L789.692 359L722.142 320ZM858.974 321L791.424 360L858.974 399L926.524 360L858.974 321ZM860.706 400L928.256 361L995.806 400L928.256 439L860.706 400ZM997.538 401L929.988 440L997.538 479L1065.09 440L997.538 401ZM445.014 240L512.564 201L580.114 240L512.564 279L445.014 240ZM581.846 241L514.296 280L581.846 319L649.396 280L581.846 241ZM583.578 320L651.128 281L718.678 320L651.128 359L583.578 320ZM720.41 321L652.86 360L720.41 399L787.96 360L720.41 321ZM722.142 400L789.692 361L857.242 400L789.692 439L722.142 400ZM860.706 480L928.256 441L995.806 480L928.256 519L860.706 480ZM443.282 241L395.651 268.5C384.65 274.851 384.65 285.149 395.651 291.5L443.282 319L510.832 280L443.282 241ZM445.014 320L512.564 281L580.114 320L512.564 359L445.014 320ZM581.846 321L514.296 360L581.846 399L649.396 360L581.846 321ZM720.41 401L652.86 440L720.41 479L787.96 440L720.41 401ZM722.142 480L789.692 441L857.242 480L789.692 519L722.142 480Z"/>
</mask>
<path fill-rule="evenodd" clip-rule="evenodd" d="M791.424 40L839.056 12.5C850.056 6.14873 867.892 6.14873 878.893 12.5L926.524 40L858.974 79L791.424 40ZM838.19 12C849.669 5.37258 868.28 5.37258 879.759 12L927.39 39.5L928.256 40L929.122 40.5L996.672 79.5L997.538 80L1066.82 120L1067.69 120.5L1135.24 159.5L1136.1 160L1136.97 160.5L1204.52 199.5L1205.38 200L1206.25 200.5L1273.8 239.5L1274.67 240L1323.16 268C1334.64 274.627 1334.64 285.373 1323.16 292L1274.67 320L1273.8 320.5L1206.25 359.5L1205.38 360L1204.52 360.5L1136.97 399.5L1136.1 400L1135.24 400.5L1067.69 439.5L1066.82 440L1065.95 440.5L998.404 479.5L997.538 480L996.672 480.5L929.122 519.5L928.256 520L879.759 548C868.28 554.627 849.669 554.627 838.19 548L789.692 520L788.826 519.5L721.276 480.5L720.41 480L719.544 479.5L651.994 440.5L651.128 440L581.846 400L580.98 399.5L513.43 360.5L512.564 360L511.698 359.5L444.148 320.5L443.282 320L442.416 319.5L394.785 292C383.305 285.373 383.306 274.627 394.785 268L442.416 240.5L443.282 240L444.148 239.5L511.698 200.5L512.564 200L513.43 199.5L580.98 160.5L581.846 160L582.712 159.5L630.343 132C641.822 125.373 660.434 125.373 671.913 132C660.434 125.373 660.434 114.627 671.913 108L719.544 80.5L720.41 80L789.692 40L790.558 39.5L838.19 12ZM860.706 80L928.256 41L995.806 80L928.256 119L860.706 80ZM999.27 160L1066.82 121L1134.37 160L1066.82 199L999.27 160ZM1136.1 161L1068.55 200L1136.1 239L1203.65 200L1136.1 161ZM1137.83 240L1205.38 201L1272.93 240L1205.38 279L1137.83 240ZM858.974 81L791.424 120L858.974 159L926.524 120L858.974 81ZM860.706 160L928.256 121L995.806 160L928.256 199L860.706 160ZM997.538 161L929.988 200L997.538 239L1065.09 200L997.538 161ZM999.27 240L1066.82 201L1134.37 240L1066.82 279L999.27 240ZM1136.1 241L1068.55 280L1136.1 319L1203.65 280L1136.1 241ZM1137.83 320L1205.38 281L1272.93 320L1205.38 359L1137.83 320ZM720.41 81L672.779 108.5C661.778 114.851 661.778 125.149 672.779 131.5L720.41 159L787.96 120L720.41 81ZM722.142 160L789.692 121L857.242 160L789.692 199L722.142 160ZM858.974 161L791.424 200L858.974 239L926.524 200L858.974 161ZM860.706 240L928.256 201L995.806 240L928.256 279L860.706 240ZM999.27 320L1066.82 281L1134.37 320L1066.82 359L999.27 320ZM1136.1 321L1068.55 360L1136.1 399L1203.65 360L1136.1 321ZM583.578 160L631.209 132.5C642.21 126.149 660.046 126.149 671.047 132.5L718.678 160L651.128 199L583.578 160ZM720.41 161L652.86 200L720.41 239L787.96 200L720.41 161ZM722.142 240L789.692 201L857.242 240L789.692 279L722.142 240ZM858.974 241L791.424 280L858.974 319L926.524 280L858.974 241ZM860.706 320L928.256 281L995.806 320L928.256 359L860.706 320ZM997.538 321L929.988 360L997.538 399L1065.09 360L997.538 321ZM999.27 400L1066.82 361L1134.37 400L1066.82 439L999.27 400ZM581.846 161L514.296 200L581.846 239L649.396 200L581.846 161ZM583.578 240L651.128 201L718.678 240L651.128 279L583.578 240ZM720.41 241L652.86 280L720.41 319L787.96 280L720.41 241ZM722.142 320L789.692 281L857.242 320L789.692 359L722.142 320ZM858.974 321L791.424 360L858.974 399L926.524 360L858.974 321ZM860.706 400L928.256 361L995.806 400L928.256 439L860.706 400ZM997.538 401L929.988 440L997.538 479L1065.09 440L997.538 401ZM445.014 240L512.564 201L580.114 240L512.564 279L445.014 240ZM581.846 241L514.296 280L581.846 319L649.396 280L581.846 241ZM583.578 320L651.128 281L718.678 320L651.128 359L583.578 320ZM720.41 321L652.86 360L720.41 399L787.96 360L720.41 321ZM722.142 400L789.692 361L857.242 400L789.692 439L722.142 400ZM860.706 480L928.256 441L995.806 480L928.256 519L860.706 480ZM443.282 241L395.651 268.5C384.65 274.851 384.65 285.149 395.651 291.5L443.282 319L510.832 280L443.282 241ZM445.014 320L512.564 281L580.114 320L512.564 359L445.014 320ZM581.846 321L514.296 360L581.846 399L649.396 360L581.846 321ZM720.41 401L652.86 440L720.41 479L787.96 440L720.41 401ZM722.142 480L789.692 441L857.242 480L789.692 519L722.142 480Z" fill="white" fill-opacity="0.02"/>
<path d="M791.424 40L790.558 40.5L789.692 40L790.558 39.5L791.424 40ZM926.524 40L927.39 39.5L928.256 40L927.39 40.5L926.524 40ZM858.974 79L859.84 79.5L858.974 80L858.108 79.5L858.974 79ZM1274.67 320L1273.8 319.5L1274.67 320ZM1273.8 320.5L1274.67 321L1273.8 320.5ZM1205.38 360L1206.25 360.5L1205.38 360ZM1204.52 360.5L1203.65 360L1204.52 360.5ZM1136.1 400L1135.24 399.5L1136.1 400ZM1135.24 400.5L1136.1 401L1135.24 400.5ZM1066.82 440L1067.69 440.5L1066.82 440ZM1065.95 440.5L1065.09 440L1065.95 440.5ZM998.404 479.5L997.538 479L998.404 479.5ZM997.538 480L998.404 480.5L997.538 480ZM929.122 519.5L928.256 519L929.122 519.5ZM928.256 520L929.122 520.5L928.256 520ZM879.759 548L878.893 547.5L879.759 548ZM511.698 200.5L512.564 201L511.698 200.5ZM512.564 200L511.698 199.5L512.564 200ZM513.43 199.5L514.296 200L513.43 199.5ZM719.544 80.5L718.678 80L719.544 80.5ZM720.41 80L721.276 80.5L720.41 80ZM789.692 40L788.826 39.5L789.692 40ZM928.256 41L927.39 40.5L928.256 40L929.122 40.5L928.256 41ZM860.706 80L859.84 80.5L858.974 80L859.84 79.5L860.706 80ZM995.806 80L996.672 79.5L997.538 80L996.672 80.5L995.806 80ZM928.256 119L929.122 119.5L928.256 120L927.39 119.5L928.256 119ZM1066.82 121L1065.95 120.5L1066.82 120L1067.69 120.5L1066.82 121ZM999.27 160L998.404 160.5L997.538 160L998.404 159.5L999.27 160ZM1134.37 160L1135.24 159.5L1136.1 160L1135.24 160.5L1134.37 160ZM1066.82 199L1067.69 199.5L1066.82 200L1065.95 199.5L1066.82 199ZM1068.55 200L1067.69 200.5L1066.82 200L1067.69 199.5L1068.55 200ZM1136.1 161L1135.24 160.5L1136.1 160L1136.97 160.5L1136.1 161ZM1136.1 239L1136.97 239.5L1136.1 240L1135.24 239.5L1136.1 239ZM1203.65 200L1204.52 199.5L1205.38 200L1204.52 200.5L1203.65 200ZM1205.38 201L1204.52 200.5L1205.38 200L1206.25 200.5L1205.38 201ZM1137.83 240L1136.97 240.5L1136.1 240L1136.97 239.5L1137.83 240ZM1272.93 240L1273.8 239.5L1274.67 240L1273.8 240.5L1272.93 240ZM1205.38 279L1206.25 279.5L1205.38 280L1204.52 279.5L1205.38 279ZM791.424 120L790.558 120.5L789.692 120L790.558 119.5L791.424 120ZM858.974 81L858.108 80.5L858.974 80L859.84 80.5L858.974 81ZM858.974 159L859.84 159.5L858.974 160L858.108 159.5L858.974 159ZM926.524 120L927.39 119.5L928.256 120L927.39 120.5L926.524 120ZM928.256 121L927.39 120.5L928.256 120L929.122 120.5L928.256 121ZM860.706 160L859.84 160.5L858.974 160L859.84 159.5L860.706 160ZM995.806 160L996.672 159.5L997.538 160L996.672 160.5L995.806 160ZM928.256 199L929.122 199.5L928.256 200L927.39 199.5L928.256 199ZM929.988 200L929.122 200.5L928.256 200L929.122 199.5L929.988 200ZM997.538 161L996.672 160.5L997.538 160L998.404 160.5L997.538 161ZM997.538 239L998.404 239.5L997.538 240L996.672 239.5L997.538 239ZM1065.09 200L1065.95 199.5L1066.82 200L1065.95 200.5L1065.09 200ZM1066.82 201L1065.95 200.5L1066.82 200L1067.69 200.5L1066.82 201ZM999.27 240L998.404 240.5L997.538 240L998.404 239.5L999.27 240ZM1134.37 240L1135.24 239.5L1136.1 240L1135.24 240.5L1134.37 240ZM1066.82 279L1067.69 279.5L1066.82 280L1065.95 279.5L1066.82 279ZM1068.55 280L1067.69 280.5L1066.82 280L1067.69 279.5L1068.55 280ZM1136.1 241L1135.24 240.5L1136.1 240L1136.97 240.5L1136.1 241ZM1136.1 319L1136.97 319.5L1136.1 320L1135.24 319.5L1136.1 319ZM1203.65 280L1204.52 279.5L1205.38 280L1204.52 280.5L1203.65 280ZM1205.38 281L1204.52 280.5L1205.38 280L1206.25 280.5L1205.38 281ZM1137.83 320L1136.97 320.5L1136.1 320L1136.97 319.5L1137.83 320ZM1272.93 320L1273.8 319.5L1274.67 320L1273.8 320.5L1272.93 320ZM1205.38 359L1206.25 359.5L1205.38 360L1204.52 359.5L1205.38 359ZM720.41 81L719.544 80.5L720.41 80L721.276 80.5L720.41 81ZM720.41 159L721.276 159.5L720.41 160L719.544 159.5L720.41 159ZM787.96 120L788.826 119.5L789.692 120L788.826 120.5L787.96 120ZM789.692 121L788.826 120.5L789.692 120L790.558 120.5L789.692 121ZM722.142 160L721.276 160.5L720.41 160L721.276 159.5L722.142 160ZM857.242 160L858.108 159.5L858.974 160L858.108 160.5L857.242 160ZM789.692 199L790.558 199.5L789.692 200L788.826 199.5L789.692 199ZM791.424 200L790.558 200.5L789.692 200L790.558 199.5L791.424 200ZM858.974 161L858.108 160.5L858.974 160L859.84 160.5L858.974 161ZM858.974 239L859.84 239.5L858.974 240L858.108 239.5L858.974 239ZM926.524 200L927.39 199.5L928.256 200L927.39 200.5L926.524 200ZM928.256 201L927.39 200.5L928.256 200L929.122 200.5L928.256 201ZM860.706 240L859.84 240.5L858.974 240L859.84 239.5L860.706 240ZM995.806 240L996.672 239.5L997.538 240L996.672 240.5L995.806 240ZM928.256 279L929.122 279.5L928.256 280L927.39 279.5L928.256 279ZM1066.82 281L1065.95 280.5L1066.82 280L1067.69 280.5L1066.82 281ZM999.27 320L998.404 320.5L997.538 320L998.404 319.5L999.27 320ZM1134.37 320L1135.24 319.5L1136.1 320L1135.24 320.5L1134.37 320ZM1066.82 359L1067.69 359.5L1066.82 360L1065.95 359.5L1066.82 359ZM1068.55 360L1067.69 360.5L1066.82 360L1067.69 359.5L1068.55 360ZM1136.1 321L1135.24 320.5L1136.1 320L1136.97 320.5L1136.1 321ZM1136.1 399L1136.97 399.5L1136.1 400L1135.24 399.5L1136.1 399ZM1203.65 360L1204.52 359.5L1205.38 360L1204.52 360.5L1203.65 360ZM583.578 160L582.712 160.5L581.846 160L582.712 159.5L583.578 160ZM718.678 160L719.544 159.5L720.41 160L719.544 160.5L718.678 160ZM651.128 199L651.994 199.5L651.128 200L650.262 199.5L651.128 199ZM652.86 200L651.994 200.5L651.128 200L651.994 199.5L652.86 200ZM720.41 161L719.544 160.5L720.41 160L721.276 160.5L720.41 161ZM720.41 239L721.276 239.5L720.41 240L719.544 239.5L720.41 239ZM787.96 200L788.826 199.5L789.692 200L788.826 200.5L787.96 200ZM789.692 201L788.826 200.5L789.692 200L790.558 200.5L789.692 201ZM722.142 240L721.276 240.5L720.41 240L721.276 239.5L722.142 240ZM857.242 240L858.108 239.5L858.974 240L858.108 240.5L857.242 240ZM789.692 279L790.558 279.5L789.692 280L788.826 279.5L789.692 279ZM791.424 280L790.558 280.5L789.692 280L790.558 279.5L791.424 280ZM858.974 241L858.108 240.5L858.974 240L859.84 240.5L858.974 241ZM858.974 319L859.84 319.5L858.974 320L858.108 319.5L858.974 319ZM926.524 280L927.39 279.5L928.256 280L927.39 280.5L926.524 280ZM928.256 281L927.39 280.5L928.256 280L929.122 280.5L928.256 281ZM860.706 320L859.84 320.5L858.974 320L859.84 319.5L860.706 320ZM995.806 320L996.672 319.5L997.538 320L996.672 320.5L995.806 320ZM928.256 359L929.122 359.5L928.256 360L927.39 359.5L928.256 359ZM929.988 360L929.122 360.5L928.256 360L929.122 359.5L929.988 360ZM997.538 321L996.672 320.5L997.538 320L998.404 320.5L997.538 321ZM997.538 399L998.404 399.5L997.538 400L996.672 399.5L997.538 399ZM1065.09 360L1065.95 359.5L1066.82 360L1065.95 360.5L1065.09 360ZM1066.82 361L1065.95 360.5L1066.82 360L1067.69 360.5L1066.82 361ZM999.27 400L998.404 400.5L997.538 400L998.404 399.5L999.27 400ZM1134.37 400L1135.24 399.5L1136.1 400L1135.24 400.5L1134.37 400ZM1066.82 439L1067.69 439.5L1066.82 440L1065.95 439.5L1066.82 439ZM514.296 200L513.43 200.5L512.564 200L513.43 199.5L514.296 200ZM581.846 161L580.98 160.5L581.846 160L582.712 160.5L581.846 161ZM581.846 239L582.712 239.5L581.846 240L580.98 239.5L581.846 239ZM649.396 200L650.262 199.5L651.128 200L650.262 200.5L649.396 200ZM651.128 201L650.262 200.5L651.128 200L651.994 200.5L651.128 201ZM583.578 240L582.712 240.5L581.846 240L582.712 239.5L583.578 240ZM718.678 240L719.544 239.5L720.41 240L719.544 240.5L718.678 240ZM651.128 279L651.994 279.5L651.128 280L650.262 279.5L651.128 279ZM652.86 280L651.994 280.5L651.128 280L651.994 279.5L652.86 280ZM720.41 241L719.544 240.5L720.41 240L721.276 240.5L720.41 241ZM720.41 319L721.276 319.5L720.41 320L719.544 319.5L720.41 319ZM787.96 280L788.826 279.5L789.692 280L788.826 280.5L787.96 280ZM789.692 281L788.826 280.5L789.692 280L790.558 280.5L789.692 281ZM722.142 320L721.276 320.5L720.41 320L721.276 319.5L722.142 320ZM857.242 320L858.108 319.5L858.974 320L858.108 320.5L857.242 320ZM789.692 359L790.558 359.5L789.692 360L788.826 359.5L789.692 359ZM791.424 360L790.558 360.5L789.692 360L790.558 359.5L791.424 360ZM858.974 321L858.108 320.5L858.974 320L859.84 320.5L858.974 321ZM858.974 399L859.84 399.5L858.974 400L858.108 399.5L858.974 399ZM926.524 360L927.39 359.5L928.256 360L927.39 360.5L926.524 360ZM928.256 361L927.39 360.5L928.256 360L929.122 360.5L928.256 361ZM860.706 400L859.84 400.5L858.974 400L859.84 399.5L860.706 400ZM995.806 400L996.672 399.5L997.538 400L996.672 400.5L995.806 400ZM928.256 439L929.122 439.5L928.256 440L927.39 439.5L928.256 439ZM929.988 440L929.122 440.5L928.256 440L929.122 439.5L929.988 440ZM997.538 401L996.672 400.5L997.538 400L998.404 400.5L997.538 401ZM997.538 479L998.404 479.5L997.538 480L996.672 479.5L997.538 479ZM1065.09 440L1065.95 439.5L1066.82 440L1065.95 440.5L1065.09 440ZM512.564 201L511.698 200.5L512.564 200L513.43 200.5L512.564 201ZM445.014 240L444.148 240.5L443.282 240L444.148 239.5L445.014 240ZM580.114 240L580.98 239.5L581.846 240L580.98 240.5L580.114 240ZM512.564 279L513.43 279.5L512.564 280L511.698 279.5L512.564 279ZM514.296 280L513.43 280.5L512.564 280L513.43 279.5L514.296 280ZM581.846 241L580.98 240.5L581.846 240L582.712 240.5L581.846 241ZM581.846 319L582.712 319.5L581.846 320L580.98 319.5L581.846 319ZM649.396 280L650.262 279.5L651.128 280L650.262 280.5L649.396 280ZM651.128 281L650.262 280.5L651.128 280L651.994 280.5L651.128 281ZM583.578 320L582.712 320.5L581.846 320L582.712 319.5L583.578 320ZM718.678 320L719.544 319.5L720.41 320L719.544 320.5L718.678 320ZM651.128 359L651.994 359.5L651.128 360L650.262 359.5L651.128 359ZM652.86 360L651.994 360.5L651.128 360L651.994 359.5L652.86 360ZM720.41 321L719.544 320.5L720.41 320L721.276 320.5L720.41 321ZM720.41 399L721.276 399.5L720.41 400L719.544 399.5L720.41 399ZM787.96 360L788.826 359.5L789.692 360L788.826 360.5L787.96 360ZM789.692 361L788.826 360.5L789.692 360L790.558 360.5L789.692 361ZM722.142 400L721.276 400.5L720.41 400L721.276 399.5L722.142 400ZM857.242 400L858.108 399.5L858.974 400L858.108 400.5L857.242 400ZM789.692 439L790.558 439.5L789.692 440L788.826 439.5L789.692 439ZM928.256 441L927.39 440.5L928.256 440L929.122 440.5L928.256 441ZM860.706 480L859.84 480.5L858.974 480L859.84 479.5L860.706 480ZM995.806 480L996.672 479.5L997.538 480L996.672 480.5L995.806 480ZM928.256 519L929.122 519.5L928.256 520L927.39 519.5L928.256 519ZM443.282 241L442.416 240.5L443.282 240L444.148 240.5L443.282 241ZM443.282 319L444.148 319.5L443.282 320L442.416 319.5L443.282 319ZM510.832 280L511.698 279.5L512.564 280L511.698 280.5L510.832 280ZM512.564 281L511.698 280.5L512.564 280L513.43 280.5L512.564 281ZM445.014 320L444.148 320.5L443.282 320L444.148 319.5L445.014 320ZM580.114 320L580.98 319.5L581.846 320L580.98 320.5L580.114 320ZM512.564 359L513.43 359.5L512.564 360L511.698 359.5L512.564 359ZM514.296 360L513.43 360.5L512.564 360L513.43 359.5L514.296 360ZM581.846 321L580.98 320.5L581.846 320L582.712 320.5L581.846 321ZM581.846 399L582.712 399.5L581.846 400L580.98 399.5L581.846 399ZM649.396 360L650.262 359.5L651.128 360L650.262 360.5L649.396 360ZM652.86 440L651.994 440.5L651.128 440L651.994 439.5L652.86 440ZM720.41 401L719.544 400.5L720.41 400L721.276 400.5L720.41 401ZM720.41 479L721.276 479.5L720.41 480L719.544 479.5L720.41 479ZM787.96 440L788.826 439.5L789.692 440L788.826 440.5L787.96 440ZM789.692 441L788.826 440.5L789.692 440L790.558 440.5L789.692 441ZM722.142 480L721.276 480.5L720.41 480L721.276 479.5L722.142 480ZM857.242 480L858.108 479.5L858.974 480L858.108 480.5L857.242 480ZM789.692 519L790.558 519.5L789.692 520L788.826 519.5L789.692 519ZM839.922 13L792.29 40.5L790.558 39.5L838.19 12L839.922 13ZM878.027 13C867.504 6.92487 850.444 6.92487 839.922 13L838.19 12C849.669 5.37258 868.28 5.37258 879.759 12L878.027 13ZM925.658 40.5L878.027 13L879.759 12L927.39 39.5L925.658 40.5ZM858.108 78.5L925.658 39.5L927.39 40.5L859.84 79.5L858.108 78.5ZM792.29 39.5L859.84 78.5L858.108 79.5L790.558 40.5L792.29 39.5ZM878.893 12.5C867.892 6.14873 850.056 6.14873 839.056 12.5L837.323 11.5C849.281 4.59644 868.667 4.59644 880.625 11.5L878.893 12.5ZM926.524 40L878.893 12.5L880.625 11.5L928.256 39L926.524 40ZM927.39 40.5L926.524 40L928.256 39L929.122 39.5L927.39 40.5ZM928.256 41L927.39 40.5L929.122 39.5L929.988 40L928.256 41ZM995.806 80L928.256 41L929.988 40L997.538 79L995.806 80ZM996.672 80.5L995.806 80L997.538 79L998.404 79.5L996.672 80.5ZM1065.95 120.5L996.672 80.5L998.404 79.5L1067.69 119.5L1065.95 120.5ZM1066.82 121L1065.95 120.5L1067.69 119.5L1068.55 120L1066.82 121ZM1134.37 160L1066.82 121L1068.55 120L1136.1 159L1134.37 160ZM1135.24 160.5L1134.37 160L1136.1 159L1136.97 159.5L1135.24 160.5ZM1136.1 161L1135.24 160.5L1136.97 159.5L1137.83 160L1136.1 161ZM1203.65 200L1136.1 161L1137.83 160L1205.38 199L1203.65 200ZM1204.52 200.5L1203.65 200L1205.38 199L1206.25 199.5L1204.52 200.5ZM1205.38 201L1204.52 200.5L1206.25 199.5L1207.12 200L1205.38 201ZM1272.93 240L1205.38 201L1207.12 200L1274.67 239L1272.93 240ZM1273.8 240.5L1272.93 240L1274.67 239L1275.53 239.5L1273.8 240.5ZM1322.3 268.5L1273.8 240.5L1275.53 239.5L1324.03 267.5L1322.3 268.5ZM1322.3 291.5C1333.3 285.149 1333.3 274.851 1322.3 268.5L1324.03 267.5C1335.99 274.404 1335.99 285.596 1324.03 292.5L1322.3 291.5ZM1273.8 319.5L1322.3 291.5L1324.03 292.5L1275.53 320.5L1273.8 319.5ZM1272.93 320L1273.8 319.5L1275.53 320.5L1274.67 321L1272.93 320ZM1205.38 359L1272.93 320L1274.67 321L1207.12 360L1205.38 359ZM1204.52 359.5L1205.38 359L1207.12 360L1206.25 360.5L1204.52 359.5ZM1203.65 360L1204.52 359.5L1206.25 360.5L1205.38 361L1203.65 360ZM1136.1 399L1203.65 360L1205.38 361L1137.83 400L1136.1 399ZM1135.24 399.5L1136.1 399L1137.83 400L1136.97 400.5L1135.24 399.5ZM1134.37 400L1135.24 399.5L1136.97 400.5L1136.1 401L1134.37 400ZM1066.82 439L1134.37 400L1136.1 401L1068.55 440L1066.82 439ZM1065.95 439.5L1066.82 439L1068.55 440L1067.69 440.5L1065.95 439.5ZM1065.09 440L1065.95 439.5L1067.69 440.5L1066.82 441L1065.09 440ZM997.538 479L1065.09 440L1066.82 441L999.27 480L997.538 479ZM996.672 479.5L997.538 479L999.27 480L998.404 480.5L996.672 479.5ZM995.806 480L996.672 479.5L998.404 480.5L997.538 481L995.806 480ZM928.256 519L995.806 480L997.538 481L929.988 520L928.256 519ZM927.39 519.5L928.256 519L929.988 520L929.122 520.5L927.39 519.5ZM878.893 547.5L927.39 519.5L929.122 520.5L880.625 548.5L878.893 547.5ZM839.056 547.5C850.056 553.851 867.892 553.851 878.893 547.5L880.625 548.5C868.667 555.404 849.281 555.404 837.324 548.5L839.056 547.5ZM790.558 519.5L839.056 547.5L837.324 548.5L788.826 520.5L790.558 519.5ZM789.692 519L790.558 519.5L788.826 520.5L787.96 520L789.692 519ZM722.142 480L789.692 519L787.96 520L720.41 481L722.142 480ZM721.276 479.5L722.142 480L720.41 481L719.544 480.5L721.276 479.5ZM720.41 479L721.276 479.5L719.544 480.5L718.678 480L720.41 479ZM652.86 440L720.41 479L718.678 480L651.128 441L652.86 440ZM651.994 439.5L652.86 440L651.128 441L650.262 440.5L651.994 439.5ZM582.712 399.5L651.994 439.5L650.262 440.5L580.98 400.5L582.712 399.5ZM581.846 399L582.712 399.5L580.98 400.5L580.114 400L581.846 399ZM514.296 360L581.846 399L580.114 400L512.564 361L514.296 360ZM513.43 359.5L514.296 360L512.564 361L511.698 360.5L513.43 359.5ZM512.564 359L513.43 359.5L511.698 360.5L510.832 360L512.564 359ZM445.014 320L512.564 359L510.832 360L443.282 321L445.014 320ZM444.148 319.5L445.014 320L443.282 321L442.416 320.5L444.148 319.5ZM443.282 319L444.148 319.5L442.416 320.5L441.55 320L443.282 319ZM395.651 291.5L443.282 319L441.55 320L393.918 292.5L395.651 291.5ZM395.651 268.5C384.65 274.851 384.65 285.149 395.651 291.5L393.918 292.5C381.961 285.596 381.961 274.404 393.918 267.5L395.651 268.5ZM443.282 241L395.651 268.5L393.918 267.5L441.55 240L443.282 241ZM444.148 240.5L443.282 241L441.55 240L442.416 239.5L444.148 240.5ZM445.014 240L444.148 240.5L442.416 239.5L443.282 239L445.014 240ZM512.564 201L445.014 240L443.282 239L510.832 200L512.564 201ZM513.43 200.5L512.564 201L510.832 200L511.698 199.5L513.43 200.5ZM514.296 200L513.43 200.5L511.698 199.5L512.564 199L514.296 200ZM581.846 161L514.296 200L512.564 199L580.114 160L581.846 161ZM582.712 160.5L581.846 161L580.114 160L580.98 159.5L582.712 160.5ZM583.578 160L582.712 160.5L580.98 159.5L581.846 159L583.578 160ZM631.209 132.5L583.578 160L581.846 159L629.477 131.5L631.209 132.5ZM671.047 132.5C660.046 126.149 642.21 126.149 631.209 132.5L629.477 131.5C641.435 124.596 660.821 124.596 672.779 131.5L671.047 132.5ZM672.779 108.5C661.778 114.851 661.778 125.149 672.779 131.5L671.047 132.5C659.089 125.596 659.089 114.404 671.047 107.5L672.779 108.5ZM720.41 81L672.779 108.5L671.047 107.5L718.678 80L720.41 81ZM721.276 80.5L720.41 81L718.678 80L719.544 79.5L721.276 80.5ZM790.558 40.5L721.276 80.5L719.544 79.5L788.826 39.5L790.558 40.5ZM791.424 40L790.558 40.5L788.826 39.5L789.692 39L791.424 40ZM839.056 12.5L791.424 40L789.692 39L837.323 11.5L839.056 12.5ZM929.122 41.5L861.572 80.5L859.84 79.5L927.39 40.5L929.122 41.5ZM994.94 80.5L927.39 41.5L929.122 40.5L996.672 79.5L994.94 80.5ZM927.39 118.5L994.94 79.5L996.672 80.5L929.122 119.5L927.39 118.5ZM861.572 79.5L929.122 118.5L927.39 119.5L859.84 80.5L861.572 79.5ZM1067.69 121.5L1000.14 160.5L998.404 159.5L1065.95 120.5L1067.69 121.5ZM1133.5 160.5L1065.95 121.5L1067.69 120.5L1135.24 159.5L1133.5 160.5ZM1065.95 198.5L1133.5 159.5L1135.24 160.5L1067.69 199.5L1065.95 198.5ZM1000.14 159.5L1067.69 198.5L1065.95 199.5L998.404 160.5L1000.14 159.5ZM1067.69 199.5L1135.24 160.5L1136.97 161.5L1069.42 200.5L1067.69 199.5ZM1135.24 239.5L1067.69 200.5L1069.42 199.5L1136.97 238.5L1135.24 239.5ZM1204.52 200.5L1136.97 239.5L1135.24 238.5L1202.79 199.5L1204.52 200.5ZM1136.97 160.5L1204.52 199.5L1202.79 200.5L1135.24 161.5L1136.97 160.5ZM1206.25 201.5L1138.7 240.5L1136.97 239.5L1204.52 200.5L1206.25 201.5ZM1272.07 240.5L1204.52 201.5L1206.25 200.5L1273.8 239.5L1272.07 240.5ZM1204.52 278.5L1272.07 239.5L1273.8 240.5L1206.25 279.5L1204.52 278.5ZM1138.7 239.5L1206.25 278.5L1204.52 279.5L1136.97 240.5L1138.7 239.5ZM790.558 119.5L858.108 80.5L859.84 81.5L792.29 120.5L790.558 119.5ZM858.108 159.5L790.558 120.5L792.29 119.5L859.84 158.5L858.108 159.5ZM927.39 120.5L859.84 159.5L858.108 158.5L925.658 119.5L927.39 120.5ZM859.84 80.5L927.39 119.5L925.658 120.5L858.108 81.5L859.84 80.5ZM929.122 121.5L861.572 160.5L859.84 159.5L927.39 120.5L929.122 121.5ZM994.94 160.5L927.39 121.5L929.122 120.5L996.672 159.5L994.94 160.5ZM927.39 198.5L994.94 159.5L996.672 160.5L929.122 199.5L927.39 198.5ZM861.572 159.5L929.122 198.5L927.39 199.5L859.84 160.5L861.572 159.5ZM929.122 199.5L996.672 160.5L998.404 161.5L930.854 200.5L929.122 199.5ZM996.672 239.5L929.122 200.5L930.854 199.5L998.404 238.5L996.672 239.5ZM1065.95 200.5L998.404 239.5L996.672 238.5L1064.22 199.5L1065.95 200.5ZM998.404 160.5L1065.95 199.5L1064.22 200.5L996.672 161.5L998.404 160.5ZM1067.69 201.5L1000.14 240.5L998.404 239.5L1065.95 200.5L1067.69 201.5ZM1133.5 240.5L1065.95 201.5L1067.69 200.5L1135.24 239.5L1133.5 240.5ZM1065.95 278.5L1133.5 239.5L1135.24 240.5L1067.69 279.5L1065.95 278.5ZM1000.14 239.5L1067.69 278.5L1065.95 279.5L998.404 240.5L1000.14 239.5ZM1067.69 279.5L1135.24 240.5L1136.97 241.5L1069.42 280.5L1067.69 279.5ZM1135.24 319.5L1067.69 280.5L1069.42 279.5L1136.97 318.5L1135.24 319.5ZM1204.52 280.5L1136.97 319.5L1135.24 318.5L1202.79 279.5L1204.52 280.5ZM1136.97 240.5L1204.52 279.5L1202.79 280.5L1135.24 241.5L1136.97 240.5ZM1206.25 281.5L1138.7 320.5L1136.97 319.5L1204.52 280.5L1206.25 281.5ZM1272.07 320.5L1204.52 281.5L1206.25 280.5L1273.8 319.5L1272.07 320.5ZM1204.52 358.5L1272.07 319.5L1273.8 320.5L1206.25 359.5L1204.52 358.5ZM1138.7 319.5L1206.25 358.5L1204.52 359.5L1136.97 320.5L1138.7 319.5ZM671.913 108L719.544 80.5L721.276 81.5L673.645 109L671.913 108ZM671.913 132C660.434 125.373 660.434 114.627 671.913 108L673.645 109C663.122 115.075 663.122 124.925 673.645 131L671.913 132ZM719.544 159.5L671.913 132L673.645 131L721.276 158.5L719.544 159.5ZM788.826 120.5L721.276 159.5L719.544 158.5L787.094 119.5L788.826 120.5ZM721.276 80.5L788.826 119.5L787.094 120.5L719.544 81.5L721.276 80.5ZM790.558 121.5L723.008 160.5L721.276 159.5L788.826 120.5L790.558 121.5ZM856.376 160.5L788.826 121.5L790.558 120.5L858.108 159.5L856.376 160.5ZM788.826 198.5L856.376 159.5L858.108 160.5L790.558 199.5L788.826 198.5ZM723.008 159.5L790.558 198.5L788.826 199.5L721.276 160.5L723.008 159.5ZM790.558 199.5L858.108 160.5L859.84 161.5L792.29 200.5L790.558 199.5ZM858.108 239.5L790.558 200.5L792.29 199.5L859.84 238.5L858.108 239.5ZM927.39 200.5L859.84 239.5L858.108 238.5L925.658 199.5L927.39 200.5ZM859.84 160.5L927.39 199.5L925.658 200.5L858.108 161.5L859.84 160.5ZM929.122 201.5L861.572 240.5L859.84 239.5L927.39 200.5L929.122 201.5ZM994.94 240.5L927.39 201.5L929.122 200.5L996.672 239.5L994.94 240.5ZM927.39 278.5L994.94 239.5L996.672 240.5L929.122 279.5L927.39 278.5ZM861.572 239.5L929.122 278.5L927.39 279.5L859.84 240.5L861.572 239.5ZM1067.69 281.5L1000.14 320.5L998.404 319.5L1065.95 280.5L1067.69 281.5ZM1133.5 320.5L1065.95 281.5L1067.69 280.5L1135.24 319.5L1133.5 320.5ZM1065.95 358.5L1133.5 319.5L1135.24 320.5L1067.69 359.5L1065.95 358.5ZM1000.14 319.5L1067.69 358.5L1065.95 359.5L998.404 320.5L1000.14 319.5ZM1067.69 359.5L1135.24 320.5L1136.97 321.5L1069.42 360.5L1067.69 359.5ZM1135.24 399.5L1067.69 360.5L1069.42 359.5L1136.97 398.5L1135.24 399.5ZM1204.52 360.5L1136.97 399.5L1135.24 398.5L1202.79 359.5L1204.52 360.5ZM1136.97 320.5L1204.52 359.5L1202.79 360.5L1135.24 321.5L1136.97 320.5ZM632.075 133L584.444 160.5L582.712 159.5L630.343 132L632.075 133ZM670.181 133C659.658 126.925 642.598 126.925 632.075 133L630.343 132C641.822 125.373 660.434 125.373 671.913 132L670.181 133ZM717.812 160.5L670.181 133L671.913 132L719.544 159.5L717.812 160.5ZM650.262 198.5L717.812 159.5L719.544 160.5L651.994 199.5L650.262 198.5ZM584.444 159.5L651.994 198.5L650.262 199.5L582.712 160.5L584.444 159.5ZM651.994 199.5L719.544 160.5L721.276 161.5L653.726 200.5L651.994 199.5ZM719.544 239.5L651.994 200.5L653.726 199.5L721.276 238.5L719.544 239.5ZM788.826 200.5L721.276 239.5L719.544 238.5L787.094 199.5L788.826 200.5ZM721.276 160.5L788.826 199.5L787.094 200.5L719.544 161.5L721.276 160.5ZM790.558 201.5L723.008 240.5L721.276 239.5L788.826 200.5L790.558 201.5ZM856.376 240.5L788.826 201.5L790.558 200.5L858.108 239.5L856.376 240.5ZM788.826 278.5L856.376 239.5L858.108 240.5L790.558 279.5L788.826 278.5ZM723.008 239.5L790.558 278.5L788.826 279.5L721.276 240.5L723.008 239.5ZM790.558 279.5L858.108 240.5L859.84 241.5L792.29 280.5L790.558 279.5ZM858.108 319.5L790.558 280.5L792.29 279.5L859.84 318.5L858.108 319.5ZM927.39 280.5L859.84 319.5L858.108 318.5L925.658 279.5L927.39 280.5ZM859.84 240.5L927.39 279.5L925.658 280.5L858.108 241.5L859.84 240.5ZM929.122 281.5L861.572 320.5L859.84 319.5L927.39 280.5L929.122 281.5ZM994.94 320.5L927.39 281.5L929.122 280.5L996.672 319.5L994.94 320.5ZM927.39 358.5L994.94 319.5L996.672 320.5L929.122 359.5L927.39 358.5ZM861.572 319.5L929.122 358.5L927.39 359.5L859.84 320.5L861.572 319.5ZM929.122 359.5L996.672 320.5L998.404 321.5L930.854 360.5L929.122 359.5ZM996.672 399.5L929.122 360.5L930.854 359.5L998.404 398.5L996.672 399.5ZM1065.95 360.5L998.404 399.5L996.672 398.5L1064.22 359.5L1065.95 360.5ZM998.404 320.5L1065.95 359.5L1064.22 360.5L996.672 321.5L998.404 320.5ZM1067.69 361.5L1000.14 400.5L998.404 399.5L1065.95 360.5L1067.69 361.5ZM1133.5 400.5L1065.95 361.5L1067.69 360.5L1135.24 399.5L1133.5 400.5ZM1065.95 438.5L1133.5 399.5L1135.24 400.5L1067.69 439.5L1065.95 438.5ZM1000.14 399.5L1067.69 438.5L1065.95 439.5L998.404 400.5L1000.14 399.5ZM513.43 199.5L580.98 160.5L582.712 161.5L515.162 200.5L513.43 199.5ZM580.98 239.5L513.43 200.5L515.162 199.5L582.712 238.5L580.98 239.5ZM650.262 200.5L582.712 239.5L580.98 238.5L648.53 199.5L650.262 200.5ZM582.712 160.5L650.262 199.5L648.53 200.5L580.98 161.5L582.712 160.5ZM651.994 201.5L584.444 240.5L582.712 239.5L650.262 200.5L651.994 201.5ZM717.812 240.5L650.262 201.5L651.994 200.5L719.544 239.5L717.812 240.5ZM650.262 278.5L717.812 239.5L719.544 240.5L651.994 279.5L650.262 278.5ZM584.444 239.5L651.994 278.5L650.262 279.5L582.712 240.5L584.444 239.5ZM651.994 279.5L719.544 240.5L721.276 241.5L653.726 280.5L651.994 279.5ZM719.544 319.5L651.994 280.5L653.726 279.5L721.276 318.5L719.544 319.5ZM788.826 280.5L721.276 319.5L719.544 318.5L787.094 279.5L788.826 280.5ZM721.276 240.5L788.826 279.5L787.094 280.5L719.544 241.5L721.276 240.5ZM790.558 281.5L723.008 320.5L721.276 319.5L788.826 280.5L790.558 281.5ZM856.376 320.5L788.826 281.5L790.558 280.5L858.108 319.5L856.376 320.5ZM788.826 358.5L856.376 319.5L858.108 320.5L790.558 359.5L788.826 358.5ZM723.008 319.5L790.558 358.5L788.826 359.5L721.276 320.5L723.008 319.5ZM790.558 359.5L858.108 320.5L859.84 321.5L792.29 360.5L790.558 359.5ZM858.108 399.5L790.558 360.5L792.29 359.5L859.84 398.5L858.108 399.5ZM927.39 360.5L859.84 399.5L858.108 398.5L925.658 359.5L927.39 360.5ZM859.84 320.5L927.39 359.5L925.658 360.5L858.108 321.5L859.84 320.5ZM929.122 361.5L861.572 400.5L859.84 399.5L927.39 360.5L929.122 361.5ZM994.94 400.5L927.39 361.5L929.122 360.5L996.672 399.5L994.94 400.5ZM927.39 438.5L994.94 399.5L996.672 400.5L929.122 439.5L927.39 438.5ZM861.572 399.5L929.122 438.5L927.39 439.5L859.84 400.5L861.572 399.5ZM929.122 439.5L996.672 400.5L998.404 401.5L930.854 440.5L929.122 439.5ZM996.672 479.5L929.122 440.5L930.854 439.5L998.404 478.5L996.672 479.5ZM1065.95 440.5L998.404 479.5L996.672 478.5L1064.22 439.5L1065.95 440.5ZM998.404 400.5L1065.95 439.5L1064.22 440.5L996.672 401.5L998.404 400.5ZM513.43 201.5L445.88 240.5L444.148 239.5L511.698 200.5L513.43 201.5ZM579.248 240.5L511.698 201.5L513.43 200.5L580.98 239.5L579.248 240.5ZM511.698 278.5L579.248 239.5L580.98 240.5L513.43 279.5L511.698 278.5ZM445.88 239.5L513.43 278.5L511.698 279.5L444.148 240.5L445.88 239.5ZM513.43 279.5L580.98 240.5L582.712 241.5L515.162 280.5L513.43 279.5ZM580.98 319.5L513.43 280.5L515.162 279.5L582.712 318.5L580.98 319.5ZM650.262 280.5L582.712 319.5L580.98 318.5L648.53 279.5L650.262 280.5ZM582.712 240.5L650.262 279.5L648.53 280.5L580.98 241.5L582.712 240.5ZM651.994 281.5L584.444 320.5L582.712 319.5L650.262 280.5L651.994 281.5ZM717.812 320.5L650.262 281.5L651.994 280.5L719.544 319.5L717.812 320.5ZM650.262 358.5L717.812 319.5L719.544 320.5L651.994 359.5L650.262 358.5ZM584.444 319.5L651.994 358.5L650.262 359.5L582.712 320.5L584.444 319.5ZM651.994 359.5L719.544 320.5L721.276 321.5L653.726 360.5L651.994 359.5ZM719.544 399.5L651.994 360.5L653.726 359.5L721.276 398.5L719.544 399.5ZM788.826 360.5L721.276 399.5L719.544 398.5L787.094 359.5L788.826 360.5ZM721.276 320.5L788.826 359.5L787.094 360.5L719.544 321.5L721.276 320.5ZM790.558 361.5L723.008 400.5L721.276 399.5L788.826 360.5L790.558 361.5ZM856.376 400.5L788.826 361.5L790.558 360.5L858.108 399.5L856.376 400.5ZM788.826 438.5L856.376 399.5L858.108 400.5L790.558 439.5L788.826 438.5ZM723.008 399.5L790.558 438.5L788.826 439.5L721.276 400.5L723.008 399.5ZM929.122 441.5L861.572 480.5L859.84 479.5L927.39 440.5L929.122 441.5ZM994.94 480.5L927.39 441.5L929.122 440.5L996.672 479.5L994.94 480.5ZM927.39 518.5L994.94 479.5L996.672 480.5L929.122 519.5L927.39 518.5ZM861.572 479.5L929.122 518.5L927.39 519.5L859.84 480.5L861.572 479.5ZM394.785 268L442.416 240.5L444.148 241.5L396.517 269L394.785 268ZM394.785 292C383.305 285.373 383.306 274.627 394.785 268L396.517 269C385.994 275.075 385.994 284.925 396.517 291L394.785 292ZM442.416 319.5L394.785 292L396.517 291L444.148 318.5L442.416 319.5ZM511.698 280.5L444.148 319.5L442.416 318.5L509.966 279.5L511.698 280.5ZM444.148 240.5L511.698 279.5L509.966 280.5L442.416 241.5L444.148 240.5ZM513.43 281.5L445.88 320.5L444.148 319.5L511.698 280.5L513.43 281.5ZM579.248 320.5L511.698 281.5L513.43 280.5L580.98 319.5L579.248 320.5ZM511.698 358.5L579.248 319.5L580.98 320.5L513.43 359.5L511.698 358.5ZM445.88 319.5L513.43 358.5L511.698 359.5L444.148 320.5L445.88 319.5ZM513.43 359.5L580.98 320.5L582.712 321.5L515.162 360.5L513.43 359.5ZM580.98 399.5L513.43 360.5L515.162 359.5L582.712 398.5L580.98 399.5ZM650.262 360.5L582.712 399.5L580.98 398.5L648.53 359.5L650.262 360.5ZM582.712 320.5L650.262 359.5L648.53 360.5L580.98 321.5L582.712 320.5ZM651.994 439.5L719.544 400.5L721.276 401.5L653.726 440.5L651.994 439.5ZM719.544 479.5L651.994 440.5L653.726 439.5L721.276 478.5L719.544 479.5ZM788.826 440.5L721.276 479.5L719.544 478.5L787.094 439.5L788.826 440.5ZM721.276 400.5L788.826 439.5L787.094 440.5L719.544 401.5L721.276 400.5ZM790.558 441.5L723.008 480.5L721.276 479.5L788.826 440.5L790.558 441.5ZM856.376 480.5L788.826 441.5L790.558 440.5L858.108 479.5L856.376 480.5ZM788.826 518.5L856.376 479.5L858.108 480.5L790.558 519.5L788.826 518.5ZM723.008 479.5L790.558 518.5L788.826 519.5L721.276 480.5L723.008 479.5Z" fill="url(#paint1_radial_614_25764)" mask="url(#path-3-inside-2_614_25764)"/>
<defs>
<radialGradient id="paint0_radial_614_25764" cx="0" cy="0" r="1" gradientUnits="userSpaceOnUse" gradientTransform="translate(478.474 339) rotate(-38.8818) scale(76.4677 46.5643)">
<stop stop-color="#56CF8F"/>
<stop offset="1" stop-color="#0A0B0F" stop-opacity="0"/>
</radialGradient>
<radialGradient id="paint1_radial_614_25764" cx="0" cy="0" r="1" gradientUnits="userSpaceOnUse" gradientTransform="translate(882.974 344.5) rotate(-164.199) scale(78.9578 55.6285)">
<stop stop-color="#56CF8F"/>
<stop offset="1" stop-color="#0A0B0F" stop-opacity="0"/>
</radialGradient>
</defs>
</svg>
