<svg width="87" height="36" viewBox="0 0 87 36" fill="none" xmlns="http://www.w3.org/2000/svg">
<g id="MainLogo">
<g id="Group">
<path id="Vector" d="M36.8016 9.47538C35.081 7.13361 36.1809 7.57959 35.1823 5.24364C32.8893 -0.122935 27.6064 0.406381 22.8591 0.194485C22.8999 1.94026 23.4355 3.17853 24.5332 4.19832C20.6404 4.14007 16.7495 8.59348 19.7841 14.2051C20.0139 14.6664 20.253 15.0636 20.5082 15.4259C21.7268 17.16 22.6844 18.6957 23.7064 20.5529C23.9867 21.063 24.2845 21.6001 24.6016 22.1648C25.3142 23.4318 25.3062 24.3174 24.9424 24.8177C24.8059 25.0026 24.6016 25.1621 24.3544 25.2888C24.0838 25.4268 23.7977 25.5047 23.5272 25.5163C22.988 25.5396 22.4488 25.2964 22.1841 24.7201L19.4979 18.8439C19.167 18.1238 18.6434 17.5706 18.0204 17.2109C17.4481 16.8781 16.7942 16.7126 16.1305 16.7265C15.4668 16.7126 14.8129 16.8781 14.2406 17.2109C13.6158 17.571 13.0922 18.1238 12.7631 18.8439L10.0752 24.7201C9.81228 25.2983 9.27127 25.5396 8.73206 25.5163C8.46155 25.5047 8.17717 25.4268 7.90666 25.2888C7.65945 25.1621 7.45292 25.0026 7.31893 24.8177C6.95303 24.3174 6.94509 23.4318 7.65759 22.1648C9.51441 18.8636 11.1437 15.4594 12.3914 12.6639C13.1487 10.9724 13.1876 9.24368 12.5123 7.5172C11.8369 5.79254 10.634 4.55107 8.93082 3.82109L0.000488281 0C0.000488281 0 0.310001 4.17319 3.09341 6.33766C4.60799 7.51729 5.57329 8.23752 6.13762 8.6482C6.57561 8.96714 6.94139 9.42284 6.85583 9.95804L6.78205 10.4211L2.55209 7.84608C2.55209 7.84608 2.36533 10.8417 3.32505 12.1943C4.28477 13.5468 4.71696 13.7142 5.34173 14.1544C4.4854 15.9257 3.66976 17.4986 2.63031 19.3456C0.619845 22.9194 1.08115 26.0163 2.67511 28.2C3.37779 29.1634 4.28691 29.9171 5.29142 30.429C6.27225 30.9292 7.3798 31.2175 8.507 31.2659C11.2049 31.3806 13.9337 30.1156 15.3081 27.1104L16.1312 25.3099L16.9548 27.1104C18.3271 30.1156 21.0558 31.3806 23.7537 31.2659C24.8805 31.2175 25.988 30.9292 26.9692 30.429C27.9756 29.9171 28.8825 29.1638 29.587 28.2C31.1795 26.0163 31.6404 22.9194 29.6318 19.3456C28.7227 17.7298 27.9891 16.3812 27.3993 15.258C28.5185 15.6454 29.7235 15.8614 30.9242 15.8322C32.3725 15.7951 33.8187 15.4 35.1152 14.5164C36.2635 13.7321 37.2954 12.4903 38.0174 10.6702C37.5004 10.2872 37.1052 9.88607 36.8016 9.47538ZM32.6692 8.50207C31.5442 8.41068 30.4619 7.99014 29.7457 7.60057C29.189 7.29875 28.829 6.7559 28.9616 6.1366C29.4207 3.9765 33.6442 4.55651 32.6692 8.50207ZM35.7954 10.285C35.6378 10.5031 35.2642 10.505 34.9606 10.2869C34.6569 10.0688 34.5382 9.71444 34.6959 9.49672C34.8535 9.27681 35.227 9.27685 35.5307 9.49494C35.8325 9.71303 35.9512 10.0651 35.7954 10.285Z" fill="url(#paint0_linear_1267_17451)"/>
</g>
<g id="Group_2">
<path id="Vector_2" d="M35.8672 29.9267V16.2431C38.2887 15.5305 39.7952 12.7803 40.3206 11.5151V19.4448H39.945C40.3615 18.6292 40.9535 18.0062 41.7202 17.582C42.487 17.1557 43.3629 16.9438 44.3477 16.9438C45.831 16.9438 46.9405 17.3855 47.6744 18.2695C48.4084 19.1553 48.7743 20.4962 48.7743 22.2988V29.9271H44.3227V22.4972C44.3227 21.7304 44.1842 21.1793 43.9101 20.8465C43.6337 20.5134 43.2209 20.3463 42.6722 20.3463C41.9539 20.3463 41.3837 20.572 40.9574 21.0216C40.5329 21.4713 40.3206 22.065 40.3206 22.7987V29.9267H35.8672ZM58.1564 30.203C55.8558 30.203 54.0669 29.6114 52.7897 28.4259C51.5151 27.2423 50.8765 25.6171 50.8765 23.548C50.8765 22.2635 51.1429 21.1228 51.6763 20.1201C52.2115 19.1196 52.9612 18.3409 53.9286 17.7824C54.8959 17.2239 56.0308 16.9435 57.331 16.9435C58.6155 16.9435 59.6861 17.2239 60.5443 17.7824C61.4046 18.3409 62.0509 19.108 62.4831 20.083C62.917 21.058 63.1351 22.1892 63.1351 23.4737V24.4235H54.6036V22.3213H59.857L59.431 22.6716C59.431 21.7217 59.2519 21.0173 58.8936 20.5578C58.5354 20.1005 58.031 19.8707 57.3811 19.8707C56.63 19.8707 56.0595 20.1492 55.6663 20.7077C55.2749 21.2665 55.0784 22.1055 55.0784 23.2228V23.6724C55.0784 24.7898 55.3548 25.6073 55.9038 26.125C56.4547 26.6409 57.2468 26.8994 58.2805 26.8994C58.9478 26.8994 59.5769 26.8254 60.1704 26.6754C60.762 26.5236 61.3246 26.2823 61.858 25.9495L63.0084 28.8515C62.376 29.2855 61.642 29.6183 60.8072 29.8521C59.9742 30.0865 59.0906 30.203 58.1564 30.203ZM65.2606 29.9267V11.5151H69.714V29.9267H65.2606ZM72.4648 35.33L72.2664 17.2203H76.568L76.8442 19.4702H76.5934C76.8271 18.7205 77.3446 18.1116 78.1448 17.6444C78.9447 17.1773 79.8364 16.9435 80.8212 16.9435C81.9229 16.9435 82.8884 17.2064 83.7232 17.7317C84.5562 18.2571 85.2101 19.0165 85.6874 20.009C86.1622 20.9997 86.4 22.1892 86.4 23.5731C86.4 24.9416 86.1626 26.125 85.6874 27.1255C85.2105 28.126 84.5566 28.8886 83.7232 29.4144C82.8884 29.9397 81.9229 30.2026 80.8212 30.2026C79.8539 30.2026 78.9779 29.981 78.1955 29.539C77.4109 29.0974 76.8931 28.5093 76.6441 27.7756H76.9185V35.33H72.4648ZM79.394 26.9001C80.163 26.9001 80.7742 26.6372 81.2333 26.1136C81.6928 25.5883 81.9225 24.7414 81.9225 23.5734C81.9225 22.4054 81.6928 21.559 81.2333 21.0355C80.7738 20.5101 80.163 20.2469 79.394 20.2469C78.6448 20.2469 78.0356 20.5098 77.5681 21.0355C77.101 21.559 76.8677 22.4058 76.8677 23.5734C76.8677 24.7414 77.101 25.5883 77.5681 26.1136C78.0356 26.6372 78.6448 26.9001 79.394 26.9001Z" fill="white"/>
</g>
</g>
<defs>
<linearGradient id="paint0_linear_1267_17451" x1="19.008" y1="0.832984" x2="19.008" y2="31.2726" gradientUnits="userSpaceOnUse">
<stop stop-color="#96FFBB"/>
<stop offset="0.4784" stop-color="#03D7A9"/>
<stop offset="1" stop-color="#006861"/>
</linearGradient>
</defs>
</svg>
