<svg width="48" height="42" viewBox="0 0 48 42" fill="none" xmlns="http://www.w3.org/2000/svg">
<g id="Frame 1597877981" filter="url(#filter0_d_614_25879)">
<g id="Group">
<path id="Vector" d="M38.2407 14.2087C36.8642 12.3353 37.7442 12.6921 36.9452 10.8233C35.1108 6.53007 30.8845 6.95352 27.0867 6.78401C27.1193 8.18063 27.5478 9.17124 28.426 9.98708C25.3118 9.94047 22.199 13.5032 24.6267 17.9925C24.8105 18.3615 25.0018 18.6793 25.206 18.9691C26.1808 20.3564 26.9469 21.585 27.7645 23.0707C27.9888 23.4788 28.227 23.9085 28.4807 24.3602C29.0507 25.3738 29.0443 26.0824 28.7534 26.4826C28.6441 26.6305 28.4807 26.7581 28.2829 26.8594C28.0665 26.9698 27.8376 27.0322 27.6212 27.0415C27.1898 27.0601 26.7584 26.8656 26.5467 26.4045L24.3977 21.7036C24.133 21.1274 23.7141 20.6849 23.2158 20.3971C22.7579 20.1309 22.2348 19.9985 21.7038 20.0096C21.1728 19.9985 20.6498 20.1309 20.1919 20.3971C19.6921 20.6852 19.2732 21.1274 19.0099 21.7036L16.8595 26.4045C16.6492 26.867 16.2164 27.0601 15.7851 27.0415C15.5687 27.0322 15.3412 26.9698 15.1247 26.8594C14.927 26.7581 14.7617 26.6305 14.6546 26.4826C14.3618 26.0824 14.3555 25.3738 14.9255 24.3602C16.4109 21.7193 17.7143 18.9959 18.7125 16.7596C19.3183 15.4064 19.3495 14.0234 18.8092 12.6422C18.2689 11.2625 17.3066 10.2693 15.9441 9.68529L8.7998 6.62842C8.7998 6.62842 9.04741 9.96697 11.2741 11.6985C12.4858 12.6423 13.258 13.2184 13.7095 13.547C14.0599 13.8021 14.3525 14.1667 14.2841 14.5949L14.2251 14.9653L10.8411 12.9053C10.8411 12.9053 10.6917 15.3018 11.4595 16.3838C12.2272 17.4659 12.573 17.5998 13.0728 17.9519C12.3877 19.369 11.7352 20.6273 10.9037 22.1049C9.29529 24.964 9.66434 27.4414 10.9395 29.1884C11.5016 29.9591 12.2289 30.5621 13.0325 30.9716C13.8172 31.3718 14.7033 31.6024 15.605 31.6412C17.7633 31.7329 19.9464 30.7209 21.0459 28.3168L21.7044 26.8764L22.3633 28.3168C23.4611 30.7209 25.6441 31.7329 27.8023 31.6412C28.7038 31.6024 29.5899 31.3718 30.3748 30.9716C31.1799 30.5621 31.9054 29.9594 32.469 29.1884C33.743 27.4414 34.1117 24.964 32.5048 22.1049C31.7775 20.8123 31.1907 19.7334 30.7188 18.8348C31.6142 19.1448 32.5782 19.3175 33.5388 19.2942C34.6974 19.2645 35.8544 18.9484 36.8916 18.2415C37.8103 17.6141 38.6358 16.6206 39.2133 15.1646C38.7997 14.8582 38.4836 14.5373 38.2407 14.2087ZM34.9348 13.4301C34.0348 13.357 33.1689 13.0205 32.596 12.7089C32.1507 12.4674 31.8626 12.0331 31.9687 11.5377C32.336 9.80962 35.7148 10.2736 34.9348 13.4301ZM37.4357 14.8564C37.3096 15.0309 37.0108 15.0324 36.7679 14.858C36.525 14.6835 36.43 14.4 36.5561 14.2258C36.6822 14.0499 36.9811 14.0499 37.224 14.2244C37.4654 14.3988 37.5604 14.6805 37.4357 14.8564Z" fill="url(#paint0_linear_614_25879)"/>
</g>
</g>
<defs>
<filter id="filter0_d_614_25879" x="0" y="-3.37158" width="48" height="48" filterUnits="userSpaceOnUse" color-interpolation-filters="sRGB">
<feFlood flood-opacity="0" result="BackgroundImageFix"/>
<feColorMatrix in="SourceAlpha" type="matrix" values="0 0 0 0 0 0 0 0 0 0 0 0 0 0 0 0 0 0 127 0" result="hardAlpha"/>
<feOffset dy="2"/>
<feGaussianBlur stdDeviation="4"/>
<feComposite in2="hardAlpha" operator="out"/>
<feColorMatrix type="matrix" values="0 0 0 0 0.0392157 0 0 0 0 0.0470588 0 0 0 0 0.0588235 0 0 0 0.4 0"/>
<feBlend mode="normal" in2="BackgroundImageFix" result="effect1_dropShadow_614_25879"/>
<feBlend mode="normal" in="SourceGraphic" in2="effect1_dropShadow_614_25879" result="shape"/>
</filter>
<linearGradient id="paint0_linear_614_25879" x1="24.0058" y1="7.2948" x2="24.0058" y2="31.6465" gradientUnits="userSpaceOnUse">
<stop stop-color="#96FFBB"/>
<stop offset="0.4784" stop-color="#03D7A9"/>
<stop offset="1" stop-color="#006861"/>
</linearGradient>
</defs>
</svg>
